{"glyphs":{"0":{"ha":853,"x_min":44,"x_max":797,"o":"m 44 483 q 65 667 44 578 q 132 827 86 755 q 248 939 177 898 q 414 981 319 981 q 441 979 422 981 q 469 978 461 978 q 658 894 584 967 q 764 714 732 821 q 797 489 797 607 q 792 383 797 450 q 737 181 780 272 q 616 37 694 90 q 425 -17 537 -17 q 137 130 229 -17 q 44 483 44 277 m 289 483 q 288 478 289 482 q 286 472 286 474 q 293 324 286 397 q 328 189 300 250 q 411 128 356 128 q 424 129 414 128 q 436 131 434 131 q 531 238 509 143 q 553 455 553 333 l 553 508 q 436 836 553 813 l 414 836 q 330 775 358 836 q 294 638 302 714 q 286 492 286 562 q 288 488 286 490 q 289 483 289 485 z "},"1":{"ha":853,"x_min":147,"x_max":675,"o":"m 675 0 l 175 0 l 175 75 q 251 91 224 83 q 297 120 277 99 q 317 180 317 140 l 317 764 q 147 722 233 730 l 147 828 q 282 877 225 845 q 389 967 338 909 l 555 967 l 555 180 q 569 118 555 138 q 603 91 583 98 q 675 75 623 85 l 675 0 z "},"2":{"ha":853,"x_min":31,"x_max":772,"o":"m 772 0 l 31 0 q 96 231 31 140 q 294 417 162 323 q 474 556 427 512 q 522 678 522 600 l 522 700 q 468 799 516 762 q 356 836 420 836 l 350 836 q 222 797 267 836 q 158 675 178 757 l 56 675 l 56 895 q 375 981 215 981 q 467 975 414 981 q 583 945 529 967 q 679 884 637 922 q 745 794 722 846 q 769 678 769 741 q 614 419 769 518 q 495 349 574 393 q 387 287 416 304 q 314 239 358 270 q 233 170 270 207 l 564 170 q 627 175 604 170 q 665 198 650 181 q 686 253 679 216 l 772 253 l 772 0 z "},"3":{"ha":853,"x_min":39,"x_max":769,"o":"m 567 553 q 698 483 649 525 q 767 367 747 442 q 769 317 769 353 q 683 111 769 202 q 521 14 618 44 q 314 -17 424 -17 q 184 -8 248 -17 q 39 17 121 1 l 39 228 l 131 228 q 192 152 146 178 q 294 125 237 125 q 400 148 346 125 q 483 205 454 170 q 519 314 519 251 q 489 408 519 369 q 398 465 458 451 q 258 478 338 478 l 225 478 l 225 611 q 255 610 235 611 q 286 608 276 608 q 455 667 410 608 q 478 733 478 693 q 453 803 478 778 q 331 844 418 844 l 294 844 q 164 753 208 832 l 72 753 l 72 911 q 370 981 220 981 q 664 889 569 981 q 725 742 725 828 q 708 667 725 700 q 567 553 673 598 z "},"4":{"ha":853,"x_min":22,"x_max":820,"o":"m 392 0 l 392 75 q 442 95 436 81 q 450 161 450 108 l 450 231 l 22 231 l 22 375 l 506 964 l 678 964 l 678 378 l 820 378 l 820 231 l 678 231 q 676 205 678 227 q 675 172 675 184 q 686 95 675 128 q 739 75 696 82 l 739 0 l 392 0 m 461 372 l 475 750 l 183 372 l 461 372 z "},"5":{"ha":853,"x_min":53,"x_max":781,"o":"m 53 31 l 53 228 l 131 228 q 228 142 173 162 q 308 128 269 128 q 392 142 351 128 q 467 184 434 154 q 518 256 500 215 q 536 342 536 297 l 536 367 q 507 454 532 414 q 440 517 481 494 q 350 542 399 540 q 170 455 260 542 l 83 478 l 105 964 l 728 964 l 678 797 l 253 797 l 247 647 q 428 686 338 686 q 560 664 497 686 q 673 598 623 642 q 752 492 724 555 q 781 350 781 429 q 755 215 781 277 q 680 106 729 153 q 561 31 631 60 q 311 -17 446 -17 l 289 -17 q 53 31 189 -13 z "},"6":{"ha":853,"x_min":39,"x_max":800,"o":"m 275 545 q 494 628 372 628 q 645 592 575 628 q 758 492 715 557 q 800 322 800 417 q 778 189 800 251 q 708 84 754 129 q 604 15 663 40 q 480 -14 546 -10 l 442 -14 q 265 23 342 -14 q 138 124 188 60 q 63 272 88 189 q 39 447 39 355 q 67 647 39 542 q 196 873 104 784 q 425 978 288 962 q 494 981 447 981 q 725 950 587 981 l 725 764 l 655 764 q 618 810 643 791 q 562 836 593 828 q 497 844 531 844 l 467 844 q 356 792 398 838 q 296 680 315 746 q 275 545 278 614 m 289 303 q 308 207 289 248 q 359 146 328 166 q 425 125 391 125 q 493 146 460 125 q 546 206 526 166 q 567 300 567 245 l 567 303 q 546 399 567 358 q 494 460 526 439 q 428 480 462 480 q 361 460 393 480 q 309 400 329 440 q 289 303 289 360 z "},"7":{"ha":853,"x_min":72,"x_max":792,"o":"m 514 0 l 258 0 q 257 8 258 3 q 256 17 256 14 q 281 231 256 126 q 351 434 306 336 q 458 622 396 532 q 594 797 519 712 l 275 797 q 210 790 231 795 q 174 768 189 785 q 150 714 159 751 l 72 714 l 72 964 l 792 964 l 792 842 q 638 598 697 735 q 552 314 580 461 q 514 0 525 167 z "},"8":{"ha":853,"x_min":36,"x_max":803,"o":"m 217 547 q 121 624 158 574 q 83 736 83 674 q 85 748 83 739 q 86 761 86 758 q 143 888 93 838 q 267 959 194 937 q 419 981 340 981 l 461 981 q 608 950 538 976 q 724 872 679 924 q 769 742 769 820 q 631 550 769 622 q 726 495 687 534 q 784 403 765 457 q 803 289 803 350 q 748 115 803 184 q 603 15 692 46 q 411 -17 514 -17 q 131 75 229 -17 q 36 283 36 165 q 37 289 36 285 q 39 294 39 292 q 89 450 41 381 q 217 547 136 519 m 303 730 l 300 728 q 337 641 300 673 q 422 608 373 608 q 511 642 472 608 q 550 733 550 676 q 513 815 550 786 q 428 844 476 844 q 340 814 377 844 q 303 730 303 784 m 275 300 q 295 205 275 244 q 349 145 316 165 q 419 125 382 125 q 492 146 457 125 q 550 207 528 167 q 572 303 572 248 q 551 396 572 357 q 494 455 529 435 q 422 475 459 475 q 319 429 363 475 q 275 300 275 382 z "},"9":{"ha":853,"x_min":36,"x_max":800,"o":"m 567 425 q 345 336 464 336 q 210 365 275 336 q 100 447 145 394 q 36 642 36 533 q 64 781 36 697 q 132 883 86 840 q 238 952 178 927 q 364 981 297 977 l 400 981 q 556 952 484 981 q 682 867 628 923 q 764 730 735 811 q 800 511 800 635 q 761 275 800 388 q 681 132 732 194 q 558 33 629 70 q 403 -11 487 -3 q 331 -14 380 -14 q 114 8 253 -14 l 114 203 l 189 203 q 249 138 207 160 q 342 117 292 117 q 358 118 346 117 q 375 119 371 119 q 515 220 472 131 q 567 425 559 308 m 550 667 q 530 760 550 721 q 478 819 510 799 q 411 839 446 839 q 314 793 355 839 q 272 667 272 748 l 270 661 q 289 565 270 605 q 341 504 309 525 q 408 483 373 483 q 477 505 444 483 q 530 568 509 526 q 550 667 550 609 z "},"":{"ha":1042,"x_min":174,"x_max":868,"o":"m 174 0 l 174 868 l 868 868 l 868 0 l 174 0 m 846 22 l 846 846 l 195 846 l 195 22 l 846 22 z "}," ":{"ha":564,"x_min":0,"x_max":0,"o":""},"!":{"ha":442,"x_min":78,"x_max":356,"o":"m 89 108 q 125 201 89 169 q 211 233 161 233 q 299 201 260 233 q 339 117 339 168 l 339 89 q 294 13 331 40 q 214 -14 257 -14 q 127 20 165 -14 q 89 108 89 53 m 280 306 l 153 306 l 86 783 q 81 822 85 797 q 78 861 78 848 q 217 997 78 997 q 356 861 356 997 q 350 783 356 837 l 280 306 z "},"\"":{"ha":486,"x_min":53,"x_max":425,"o":"m 139 578 l 108 578 l 56 892 q 54 902 56 895 q 53 911 53 909 q 74 967 53 946 q 122 989 95 989 q 172 966 150 989 q 194 908 194 944 l 194 892 l 139 578 m 370 578 l 339 578 l 286 892 q 285 902 286 895 q 283 911 283 909 q 304 967 283 946 q 353 989 326 989 q 402 966 380 989 q 425 908 425 944 l 425 892 l 370 578 z "},"#":{"ha":1081,"x_min":31,"x_max":1036,"o":"m 483 995 l 628 995 l 531 711 l 700 711 l 800 995 l 947 995 l 847 711 l 1036 711 l 989 575 l 797 575 l 739 411 l 939 411 l 892 275 l 692 275 l 592 -5 l 445 -5 l 547 275 l 375 275 l 272 -5 l 128 -5 l 225 275 l 31 275 l 83 411 l 275 411 l 333 575 l 131 575 l 180 711 l 383 711 l 483 995 m 478 578 l 419 408 l 597 408 l 659 578 l 478 578 z "},"$":{"ha":853,"x_min":89,"x_max":775,"o":"m 500 -97 l 361 -97 l 361 92 q 229 107 288 94 q 89 147 171 119 l 89 350 l 205 350 q 386 214 261 214 q 403 215 391 214 q 423 218 415 217 q 447 222 430 219 q 502 250 480 229 q 525 300 525 270 l 525 311 q 493 361 519 345 q 425 392 467 378 l 272 436 q 89 647 89 490 q 92 680 89 659 q 97 714 96 702 q 192 847 118 801 q 361 906 265 894 l 361 1061 l 500 1061 l 500 906 q 722 881 637 900 l 722 672 l 608 672 q 522 772 579 751 q 453 781 494 781 q 394 775 428 781 q 345 748 366 769 q 325 700 325 728 q 347 653 325 669 q 408 625 370 636 l 561 589 q 775 358 775 529 q 739 223 775 280 q 640 133 702 165 q 500 92 577 100 l 500 -97 z "},"%":{"ha":1156,"x_min":42,"x_max":1105,"o":"m 208 -17 l 717 822 q 558 764 644 764 q 544 765 554 764 q 528 767 533 767 l 528 747 q 462 570 528 637 q 286 503 397 503 q 160 533 216 503 q 73 616 104 564 q 42 730 42 669 q 64 836 42 783 q 150 937 88 902 q 286 972 211 972 q 389 954 347 972 q 480 895 431 936 q 581 858 525 858 q 705 898 641 858 q 814 992 770 938 l 947 992 l 342 -17 l 208 -17 m 214 736 q 228 636 214 676 q 289 597 241 597 q 295 598 290 597 q 300 600 299 600 q 348 638 337 604 q 358 722 358 672 l 358 747 q 300 875 358 869 l 289 875 q 228 835 241 875 q 214 736 214 795 m 620 225 q 654 354 620 300 q 744 434 688 407 q 861 461 799 461 q 979 434 924 461 q 1070 354 1035 408 q 1105 225 1105 300 l 1105 222 q 1070 97 1105 150 q 979 18 1035 45 q 861 -8 924 -8 q 744 18 799 -8 q 654 98 688 45 q 620 225 620 151 m 789 225 q 803 126 789 166 q 864 86 817 86 q 869 87 865 86 q 875 89 873 89 q 926 132 915 93 q 936 225 936 170 q 926 320 936 281 q 875 361 915 358 l 861 361 q 802 322 815 361 q 789 225 789 283 z "},"&":{"ha":1081,"x_min":56,"x_max":1058,"o":"m 1058 353 q 998 326 1016 344 q 962 258 980 309 q 944 205 945 207 q 842 70 910 121 q 689 -1 775 20 q 508 -22 604 -22 l 494 -22 q 317 -2 405 -22 q 162 69 230 19 q 70 197 94 119 q 56 275 56 238 q 81 378 56 333 q 239 511 112 450 q 155 567 187 538 q 108 642 124 595 q 97 706 97 681 q 117 798 97 751 q 170 878 136 844 q 494 997 278 997 q 628 987 563 997 q 797 958 694 977 l 797 755 l 728 755 q 654 836 695 808 q 553 867 612 863 l 531 867 q 449 850 487 867 q 389 800 410 833 q 364 728 364 765 q 380 672 364 701 q 422 628 396 644 q 465 608 443 614 q 511 598 486 601 q 564 594 536 595 q 617 592 591 593 l 617 483 q 439 456 512 480 q 339 356 367 431 q 328 297 328 316 q 362 201 328 244 q 450 139 396 158 q 553 119 504 119 q 660 143 611 119 q 733 214 710 166 q 744 272 744 247 q 733 319 744 304 q 650 353 709 347 l 650 428 l 1058 428 l 1058 353 z "},"'":{"ha":367,"x_min":50,"x_max":308,"o":"m 150 567 l 92 625 q 180 778 171 705 q 166 777 176 778 q 153 775 155 775 q 77 802 104 775 q 50 869 50 829 q 86 955 50 916 q 178 995 122 995 l 203 995 q 281 940 254 985 q 308 839 308 896 q 307 819 308 833 q 306 800 306 805 q 254 684 293 737 q 150 567 215 632 z "},"(":{"ha":517,"x_min":72,"x_max":489,"o":"m 489 -236 l 419 -308 q 240 -102 314 -198 q 121 106 167 -6 q 75 345 75 218 l 72 350 q 99 531 72 445 q 173 699 126 618 q 279 850 221 780 q 411 997 337 921 l 483 930 q 330 669 377 796 q 283 378 283 542 q 285 371 283 377 q 286 364 286 365 q 309 139 289 235 q 371 -44 329 42 q 489 -236 413 -131 z "},")":{"ha":517,"x_min":17,"x_max":433,"o":"m 17 -236 q 85 -136 55 -185 q 140 -35 116 -87 q 180 75 163 17 q 217 364 217 224 q 198 575 217 483 q 138 752 180 667 q 22 930 96 836 l 95 997 q 229 848 172 918 q 333 699 287 778 q 407 531 380 619 q 433 347 433 443 q 387 108 433 221 q 268 -99 340 -5 q 89 -308 196 -194 l 17 -236 z "},"*":{"ha":700,"x_min":78,"x_max":614,"o":"m 339 681 q 261 611 291 651 q 237 575 252 601 q 211 542 221 550 q 153 514 188 514 q 95 547 118 514 q 78 592 78 575 q 99 641 78 619 q 153 667 120 663 q 200 670 179 669 q 242 674 221 671 q 281 683 262 677 q 325 700 300 688 q 225 730 277 726 q 180 735 213 733 q 131 742 148 737 q 94 767 108 748 q 81 808 81 786 q 97 858 81 831 q 156 886 117 886 q 191 877 174 886 q 217 853 209 868 q 336 720 275 767 q 314 822 327 781 q 293 862 310 837 q 275 897 277 887 q 274 908 275 900 q 272 920 272 917 q 294 974 272 950 q 347 997 316 997 l 358 997 q 405 972 388 995 q 422 922 422 950 q 417 889 422 911 q 388 829 400 853 q 370 782 377 806 q 358 722 363 759 q 436 789 401 749 q 483 861 468 846 q 542 886 508 886 q 581 873 562 886 q 608 839 601 861 q 614 806 614 817 q 594 760 614 779 q 545 739 573 741 q 370 703 431 729 q 429 680 403 686 q 494 671 455 674 q 555 664 532 668 q 598 639 582 660 q 614 592 614 618 q 603 550 614 572 q 574 522 593 533 q 539 511 556 511 q 483 542 509 511 q 447 591 467 561 q 410 641 427 622 q 361 681 393 660 q 372 613 365 635 q 395 562 379 591 q 422 503 411 532 q 424 492 422 500 q 425 480 425 484 q 403 430 425 451 q 350 408 381 408 q 295 427 318 408 q 272 475 272 447 q 278 503 272 486 q 300 551 284 522 q 319 592 315 579 q 339 681 329 627 z "},"+":{"ha":1172,"x_min":172,"x_max":986,"o":"m 511 828 l 650 828 l 650 483 l 986 483 l 986 347 l 650 347 l 650 0 l 511 0 l 511 347 l 172 347 l 172 483 l 511 483 l 511 828 z "},",":{"ha":428,"x_min":83,"x_max":342,"o":"m 156 -203 l 100 -147 q 179 -68 151 -102 q 214 8 207 -33 q 207 7 212 8 q 200 5 201 5 q 113 35 143 5 q 83 108 83 65 q 99 167 83 138 q 144 215 115 196 q 208 233 173 233 l 236 233 q 313 180 285 225 q 342 83 342 135 q 336 39 342 68 q 278 -88 325 -32 q 156 -203 230 -144 z "},"-":{"ha":472,"x_min":61,"x_max":403,"o":"m 403 258 l 61 258 l 61 422 l 403 422 l 403 258 z "},".":{"ha":428,"x_min":86,"x_max":333,"o":"m 86 108 q 122 201 86 169 q 208 233 158 233 q 295 201 257 233 q 333 117 333 169 l 333 89 q 290 13 326 40 q 211 -14 254 -14 q 124 20 162 -14 q 86 108 86 53 z "},"/":{"ha":397,"x_min":-42,"x_max":392,"o":"m 72 -128 l -42 -128 l 278 997 l 392 997 l 72 -128 z "},":":{"ha":442,"x_min":89,"x_max":336,"o":"m 89 108 q 125 201 89 169 q 211 233 161 233 q 298 201 260 233 q 336 117 336 169 l 336 89 q 292 13 328 40 q 214 -14 257 -14 q 127 20 165 -14 q 89 108 89 53 m 89 561 q 125 652 89 620 q 211 683 160 683 q 298 651 260 683 q 336 567 336 618 l 336 539 q 292 464 328 492 q 214 436 256 436 q 127 471 165 436 q 89 561 89 506 z "},";":{"ha":442,"x_min":86,"x_max":345,"o":"m 89 561 q 125 652 89 620 q 211 683 160 683 q 298 651 260 683 q 336 567 336 618 l 336 539 q 292 464 328 492 q 214 436 256 436 q 127 471 165 436 q 89 561 89 506 m 158 -203 l 103 -147 q 182 -68 154 -101 q 217 8 210 -34 q 209 7 215 8 q 203 5 204 5 q 117 35 148 5 q 86 105 86 64 q 102 165 86 135 q 147 214 118 195 q 211 233 176 233 l 239 233 q 316 180 288 225 q 345 83 345 135 q 339 39 345 65 q 279 -89 326 -32 q 158 -203 231 -146 z "},"<":{"ha":1172,"x_min":180,"x_max":978,"o":"m 978 808 l 978 664 l 372 417 l 978 167 l 978 19 l 180 347 l 180 483 l 978 808 z "},"=":{"ha":1172,"x_min":172,"x_max":986,"o":"m 172 628 l 986 628 l 986 494 l 172 494 l 172 628 m 172 336 l 986 336 l 986 203 l 172 203 l 172 336 z "},">":{"ha":1172,"x_min":180,"x_max":978,"o":"m 180 808 l 978 483 l 978 347 l 180 19 l 180 167 l 786 417 l 180 664 l 180 808 z "},"?":{"ha":853,"x_min":72,"x_max":758,"o":"m 208 108 q 245 199 208 162 q 333 236 282 236 q 347 235 338 236 q 361 233 357 233 q 431 190 404 225 q 458 111 458 154 l 458 89 q 414 13 451 40 q 333 -14 377 -14 q 246 20 284 -14 q 208 108 208 53 m 406 286 l 264 286 l 264 531 q 298 529 277 531 q 331 528 319 528 q 483 589 443 528 q 506 667 506 618 q 472 772 506 724 q 409 824 451 806 q 322 842 367 842 l 297 842 q 161 714 199 827 l 72 714 l 72 958 q 322 997 218 997 q 469 981 399 997 q 611 921 547 964 q 713 814 674 879 q 758 669 751 749 l 758 636 q 719 488 758 555 q 608 392 680 420 q 445 361 539 361 q 425 362 439 361 q 406 364 411 364 l 406 286 z "},"@":{"ha":1383,"x_min":92,"x_max":1281,"o":"m 744 645 q 649 577 692 637 q 578 441 605 517 q 542 308 550 366 q 533 244 533 250 q 553 170 533 208 q 622 128 576 128 q 636 131 627 128 q 650 133 646 133 q 737 213 692 146 q 812 370 782 281 q 842 528 842 458 q 821 613 842 581 q 758 645 800 645 l 744 645 m 797 217 q 594 83 709 83 q 583 85 592 83 q 569 86 574 86 q 438 159 485 94 q 392 311 392 224 q 393 328 392 315 q 394 345 394 340 q 456 518 402 438 q 587 643 510 597 q 733 689 663 689 q 800 675 769 689 q 854 634 832 662 q 886 564 877 606 l 917 675 l 1047 675 l 928 256 q 917 189 917 204 q 967 125 917 125 q 1081 175 1013 125 q 1196 323 1156 229 q 1236 519 1236 418 l 1236 553 q 1180 740 1231 658 q 1044 872 1129 822 q 856 936 959 922 q 775 939 830 939 q 619 918 695 939 q 476 856 543 897 q 353 758 408 816 q 264 628 299 700 q 197 345 197 485 q 230 160 197 249 q 325 5 262 71 q 439 -78 375 -44 q 574 -128 504 -112 q 720 -144 645 -144 q 928 -114 827 -144 q 1024 -77 987 -97 q 1150 -5 1061 -58 l 1178 -39 q 1005 -139 1085 -105 q 820 -186 926 -172 q 717 -192 759 -192 q 468 -153 589 -192 q 261 -36 347 -114 q 135 144 178 42 q 92 358 92 247 q 113 514 92 435 q 175 664 134 593 q 272 792 216 735 q 497 936 369 886 q 761 986 625 986 q 889 978 827 986 q 1048 923 976 963 q 1173 825 1121 884 q 1253 690 1225 766 q 1281 525 1281 614 q 1262 378 1281 450 q 1204 244 1242 306 q 1108 139 1165 182 q 1029 96 1073 112 q 944 81 985 81 q 846 115 887 81 q 797 217 805 149 z "},"A":{"ha":944,"x_min":-47,"x_max":972,"o":"m 317 472 l 531 472 l 422 781 l 317 472 m 247 0 l -47 0 l -47 75 q 22 144 2 90 l 336 972 l 592 972 l 908 136 q 972 75 924 93 l 972 0 l 606 0 l 606 75 q 642 92 630 85 q 653 114 653 99 l 653 131 l 581 328 l 267 328 l 203 133 q 200 123 203 131 q 197 114 197 115 q 213 88 197 98 q 247 75 228 77 l 247 0 z "},"B":{"ha":1003,"x_min":44,"x_max":947,"o":"m 508 136 q 700 278 686 136 l 700 303 q 647 421 700 381 q 508 461 594 461 l 353 461 l 353 136 l 508 136 m 494 594 q 600 621 554 594 q 650 703 646 647 l 650 711 q 605 805 650 773 q 494 836 561 836 l 353 836 l 353 594 l 494 594 m 44 75 q 92 93 81 82 q 103 139 103 103 l 103 833 q 91 882 103 869 q 44 897 78 895 l 44 972 l 494 972 q 681 958 598 972 q 823 895 763 944 q 889 750 884 846 l 889 733 q 836 607 889 657 q 703 533 782 557 q 880 446 813 509 q 947 283 947 384 q 944 231 947 250 q 870 81 928 132 q 735 15 813 30 q 550 0 658 0 l 44 0 l 44 75 z "},"C":{"ha":1095,"x_min":42,"x_max":1047,"o":"m 1008 -5 q 783 -25 906 -25 q 617 -17 694 -25 q 387 41 492 0 q 203 158 283 82 q 115 261 152 204 q 61 382 79 318 q 42 514 42 447 q 102 745 42 642 q 267 912 163 848 q 497 995 371 976 q 600 1000 564 1000 q 811 967 710 1000 q 1047 817 941 924 l 844 617 l 783 655 q 792 711 792 684 q 760 793 792 758 q 672 842 729 828 q 592 850 636 850 q 467 821 526 850 q 370 739 409 792 q 319 617 331 686 q 316 586 317 598 q 313 559 314 574 q 311 536 311 544 q 347 371 311 450 q 447 234 382 291 q 597 153 511 176 q 708 136 670 136 q 808 150 756 136 q 930 244 875 170 l 1008 244 l 1008 -5 z "},"D":{"ha":1095,"x_min":44,"x_max":1036,"o":"m 44 0 l 44 75 q 79 85 68 79 q 95 102 91 90 q 100 139 100 114 l 100 833 q 90 882 100 870 q 44 897 79 893 l 44 972 l 436 972 q 619 953 533 972 q 781 891 705 935 q 920 778 858 848 q 1006 628 976 711 q 1036 458 1036 544 q 1035 429 1036 447 q 1033 403 1033 411 q 1004 277 1027 337 q 941 167 980 217 q 849 80 901 116 q 736 25 798 44 q 623 4 682 9 q 478 0 563 0 l 44 0 m 356 144 q 384 143 363 144 q 414 142 404 142 q 617 178 537 142 q 702 246 667 200 q 755 349 738 292 q 772 464 772 406 q 758 569 772 516 q 717 670 744 623 q 650 750 689 716 q 522 813 592 797 q 356 830 452 828 l 356 144 z "},"E":{"ha":944,"x_min":44,"x_max":908,"o":"m 44 0 l 44 75 q 79 85 68 79 q 95 102 91 90 q 100 139 100 114 l 100 833 q 90 882 100 870 q 44 897 79 893 l 44 972 l 878 972 l 878 747 l 803 747 q 757 818 790 802 q 664 833 724 833 l 356 833 l 356 614 l 614 614 q 678 626 657 614 q 711 675 700 638 l 783 675 l 783 411 l 711 411 q 678 466 702 452 q 606 480 655 480 l 356 480 l 356 142 l 689 142 q 793 159 761 142 q 836 233 825 175 l 908 233 l 908 0 l 44 0 z "},"F":{"ha":914,"x_min":44,"x_max":878,"o":"m 44 0 l 44 75 q 79 85 68 79 q 95 102 91 90 q 100 139 100 114 l 100 833 q 90 882 100 870 q 44 897 79 893 l 44 972 l 878 972 l 878 747 l 803 747 q 757 818 790 802 q 664 833 724 833 l 356 833 l 356 600 l 614 600 q 678 612 657 600 q 711 664 700 625 l 783 664 l 783 394 l 711 394 q 678 450 702 436 q 606 464 655 464 l 356 464 l 356 139 q 367 93 356 103 q 417 75 379 82 l 417 0 l 44 0 z "},"G":{"ha":1142,"x_min":31,"x_max":1067,"o":"m 1067 70 l 1067 -5 q 957 -13 1034 -7 q 831 -20 880 -18 q 739 -22 782 -22 q 370 36 523 -22 q 123 220 216 95 q 31 500 31 344 q 33 529 31 508 q 36 558 36 550 q 90 732 47 654 q 201 866 133 809 q 355 955 269 922 q 533 995 440 987 q 568 996 544 995 q 603 997 592 997 q 759 978 687 997 q 897 920 831 959 q 1030 820 962 881 l 856 642 l 792 681 q 797 722 797 708 q 771 787 797 759 q 702 828 745 814 q 608 842 658 842 q 462 813 532 842 q 356 730 392 784 q 313 635 329 690 q 297 525 297 579 q 320 389 297 458 q 380 270 342 321 q 542 159 444 191 q 761 128 641 128 l 761 400 q 748 447 761 434 q 700 467 735 460 l 700 539 l 1067 539 l 1067 467 q 1020 448 1031 460 q 1008 400 1008 435 l 1008 133 q 1013 99 1008 111 q 1030 80 1018 86 q 1067 70 1042 74 z "},"H":{"ha":1095,"x_min":44,"x_max":1039,"o":"m 44 0 l 44 75 q 92 93 81 82 q 103 139 103 103 l 103 833 q 91 882 103 869 q 44 897 78 895 l 44 972 l 417 972 l 417 897 q 370 882 384 895 q 356 833 356 868 l 356 611 l 728 611 l 728 833 q 716 881 728 870 q 667 897 704 893 l 667 972 l 1039 972 l 1039 897 q 995 881 1008 895 q 981 833 981 868 l 981 139 q 992 93 981 104 q 1039 75 1004 82 l 1039 0 l 667 0 l 667 75 q 705 85 692 79 q 722 102 717 90 q 728 139 728 114 l 728 469 l 356 469 l 356 139 q 367 93 356 103 q 417 75 379 82 l 417 0 l 44 0 z "},"I":{"ha":486,"x_min":53,"x_max":431,"o":"m 53 0 l 53 75 q 100 93 88 82 q 111 139 111 104 l 111 833 q 99 881 111 869 q 53 897 87 893 l 53 972 l 431 972 l 431 897 q 385 882 398 895 q 372 833 372 868 l 372 139 q 384 93 372 103 q 431 75 395 82 l 431 0 l 53 0 z "},"J":{"ha":853,"x_min":-5,"x_max":800,"o":"m -5 264 l 205 389 l 256 333 q 222 242 222 291 q 247 176 222 205 q 317 136 272 146 q 340 132 322 135 q 367 128 358 128 q 489 314 489 128 l 489 833 q 484 871 489 858 q 467 889 479 884 q 433 897 455 895 l 433 972 l 800 972 l 800 897 q 766 889 778 895 q 749 871 754 884 q 744 833 744 858 l 744 417 q 731 243 744 315 q 672 105 718 170 q 417 -22 590 -7 l 370 -22 q 240 -4 297 -22 q 139 52 183 15 q 60 140 94 88 q -5 264 26 192 z "},"K":{"ha":1033,"x_min":44,"x_max":1078,"o":"m 44 0 l 44 75 q 79 85 68 79 q 95 102 91 90 q 100 139 100 114 l 100 833 q 90 882 100 870 q 44 897 79 893 l 44 972 l 417 972 l 417 897 q 369 882 383 895 q 356 833 356 868 l 356 586 l 625 830 q 647 869 647 849 q 632 890 647 882 q 592 897 617 897 l 592 972 l 989 972 l 989 897 q 861 839 916 889 l 647 645 l 992 133 q 1026 96 1008 107 q 1078 75 1044 85 l 1078 0 l 653 0 l 653 75 q 697 103 697 80 q 689 133 697 116 l 461 480 l 356 383 l 356 139 q 367 93 356 103 q 417 75 379 82 l 417 0 l 44 0 z "},"L":{"ha":867,"x_min":44,"x_max":833,"o":"m 44 0 l 44 75 q 79 85 68 79 q 95 102 91 90 q 100 139 100 114 l 100 833 q 90 882 100 870 q 44 897 79 893 l 44 972 l 417 972 l 417 897 q 369 882 383 895 q 356 833 356 868 l 356 144 l 628 144 q 717 167 685 144 q 761 244 749 190 l 833 244 l 833 0 l 44 0 z "},"M":{"ha":1217,"x_min":-3,"x_max":1192,"o":"m 280 0 l -3 0 l -3 75 q 39 103 26 85 q 56 153 52 121 l 170 833 l 170 850 q 155 885 170 872 q 117 897 141 897 l 117 972 l 461 972 l 594 547 l 728 972 l 1089 972 l 1089 897 q 1054 882 1066 897 q 1042 844 1042 867 q 1043 839 1042 843 q 1044 830 1044 834 l 1144 133 q 1158 94 1149 106 q 1192 75 1167 81 l 1192 0 l 842 0 l 842 75 q 897 119 897 79 l 897 133 l 817 728 l 653 214 l 469 214 l 319 728 l 222 144 q 221 134 222 142 q 219 122 219 125 q 233 86 219 97 q 280 75 248 75 l 280 0 z "},"N":{"ha":1064,"x_min":44,"x_max":1017,"o":"m 44 0 l 44 75 q 79 85 68 79 q 95 102 91 90 q 100 139 100 114 l 100 833 q 90 882 100 870 q 44 897 79 893 l 44 972 l 394 972 l 792 583 l 792 833 q 781 882 792 870 q 733 897 770 893 l 733 972 l 1017 972 l 1017 897 q 983 889 995 895 q 966 871 971 884 q 961 833 961 858 l 961 139 q 972 93 961 103 q 1017 75 983 82 l 1017 0 l 733 0 l 733 75 q 786 95 778 81 q 792 158 792 105 l 792 239 l 270 747 l 270 139 q 281 93 270 103 q 328 75 292 82 l 328 0 l 44 0 z "},"O":{"ha":1186,"x_min":47,"x_max":1133,"o":"m 47 486 q 92 707 47 610 q 215 868 137 803 q 389 965 292 932 q 589 997 485 997 q 790 965 692 997 q 964 868 887 932 q 1088 706 1042 803 q 1133 486 1133 609 q 1093 274 1133 368 q 978 113 1052 179 q 805 12 903 46 q 592 -22 706 -22 q 377 12 476 -22 q 203 113 278 46 q 88 274 129 179 q 47 486 47 370 m 314 486 q 343 312 314 393 q 434 181 372 231 q 589 131 496 131 q 744 179 681 131 q 839 306 808 227 q 869 475 869 385 l 869 486 q 848 638 869 564 q 778 766 826 712 q 655 836 730 820 q 586 842 611 842 q 437 792 499 842 q 345 661 375 743 q 314 486 314 579 z "},"P":{"ha":944,"x_min":44,"x_max":897,"o":"m 44 0 l 44 75 q 79 85 68 79 q 95 102 91 90 q 100 139 100 114 l 100 833 q 90 882 100 870 q 44 897 79 893 l 44 972 l 539 972 q 897 714 897 972 l 897 711 q 845 546 896 615 q 712 433 793 478 q 578 370 631 388 q 356 300 525 352 l 356 139 q 361 100 357 111 q 377 83 366 89 q 417 75 389 78 l 417 0 l 44 0 m 356 442 q 470 490 437 475 q 544 532 504 504 q 610 599 585 560 q 636 689 636 638 l 636 708 q 573 807 631 783 q 425 830 515 830 l 356 830 l 356 442 z "},"Q":{"ha":1203,"x_min":44,"x_max":1192,"o":"m 1192 203 l 1192 -8 q 1061 -22 1111 -22 q 867 44 960 -22 q 781 8 845 34 q 583 -22 685 -22 q 433 -5 505 -22 q 270 65 342 16 q 146 181 197 113 q 70 329 96 249 q 44 492 44 410 q 62 626 44 559 q 117 754 80 693 q 205 861 153 814 q 583 995 351 995 q 750 978 669 995 q 904 913 832 958 q 1028 803 975 869 q 1108 659 1082 737 q 1133 494 1133 580 q 1120 380 1133 437 q 1079 271 1106 323 q 1014 175 1052 219 q 1067 147 1047 147 q 1102 162 1084 147 q 1125 203 1119 177 l 1192 203 m 467 228 l 422 297 q 611 367 512 367 q 830 292 715 367 q 872 478 872 362 q 842 664 872 577 q 767 775 815 728 q 655 836 719 822 q 592 842 617 842 q 386 744 462 842 q 329 628 350 698 q 308 486 308 558 q 325 359 308 421 q 374 247 342 297 q 453 167 407 197 q 597 125 522 125 q 730 161 667 125 q 542 244 632 244 q 467 228 504 244 z "},"R":{"ha":972,"x_min":39,"x_max":978,"o":"m 472 553 q 608 588 555 553 q 661 697 661 623 l 661 722 q 472 839 648 839 q 409 838 450 839 q 353 836 368 836 l 353 553 l 472 553 m 39 0 l 39 75 q 87 92 77 82 q 97 139 97 103 l 97 833 q 86 882 97 870 q 39 897 76 893 l 39 972 l 533 972 q 706 958 632 972 q 836 897 780 944 q 900 811 878 862 q 922 703 922 760 q 906 609 922 650 q 861 538 890 569 q 793 486 832 508 q 706 445 754 463 l 900 136 q 978 75 932 86 l 978 0 l 694 0 l 436 419 l 353 419 l 353 139 q 364 93 353 103 q 414 75 376 82 l 414 0 l 39 0 z "},"S":{"ha":1003,"x_min":8,"x_max":942,"o":"m 8 217 l 225 372 l 289 314 q 258 233 258 270 q 328 142 258 173 q 486 111 397 111 q 589 125 529 111 q 665 168 633 137 q 697 239 697 199 q 689 283 697 262 q 635 339 674 321 q 531 372 595 357 l 345 422 q 182 485 249 446 q 89 597 116 524 q 70 692 70 650 q 105 822 70 759 q 200 922 140 885 q 464 997 307 997 q 600 983 532 997 q 906 803 755 948 l 739 647 l 667 689 q 668 707 667 694 q 669 725 669 719 q 614 830 669 795 q 475 864 552 864 q 408 856 437 864 q 339 817 369 847 q 308 750 308 786 q 311 740 308 747 q 314 728 314 733 q 334 692 319 706 q 367 670 348 678 q 409 657 386 663 q 453 647 432 652 l 617 603 q 753 561 695 584 q 858 497 810 538 q 928 394 906 456 q 942 306 942 349 q 902 159 942 229 q 797 47 863 90 q 492 -25 679 -25 q 358 -17 420 -25 q 216 24 277 -6 q 107 100 155 54 q 8 217 59 146 z "},"T":{"ha":867,"x_min":19,"x_max":836,"o":"m 244 0 l 244 75 q 292 93 281 82 q 303 139 303 103 l 303 830 q 255 832 286 830 q 203 833 223 833 q 124 815 152 833 q 92 744 96 797 l 19 744 l 19 972 l 836 972 l 836 744 l 767 744 q 720 822 756 807 q 636 830 697 830 l 555 830 l 555 139 q 554 133 555 137 q 553 128 553 129 q 567 91 553 101 q 614 75 581 80 l 614 0 l 244 0 z "},"U":{"ha":1081,"x_min":47,"x_max":1033,"o":"m 1033 0 l 645 0 q 434 12 519 0 q 267 70 348 24 q 183 128 222 92 q 116 207 144 163 q 72 300 88 251 q 47 447 47 385 q 114 700 47 575 q 164 780 118 707 q 211 864 210 853 l 211 867 q 194 890 211 884 q 156 897 176 897 l 156 972 l 536 972 l 536 897 q 383 739 441 842 q 311 442 316 612 q 428 192 311 259 q 650 144 509 144 q 686 146 661 144 q 722 147 711 147 l 722 833 q 717 871 722 858 q 700 889 712 884 q 667 897 688 895 l 667 972 l 1033 972 l 1033 897 q 990 882 1003 895 q 978 833 978 868 l 978 139 q 989 93 978 103 q 1033 75 999 82 l 1033 0 z "},"V":{"ha":867,"x_min":-42,"x_max":908,"o":"m 545 0 l 322 0 l 33 825 q -42 897 9 894 l -42 972 l 342 972 l 342 897 q 294 858 294 889 q 298 843 294 853 q 303 825 301 832 l 486 278 l 661 808 q 667 847 667 836 q 608 897 667 890 l 608 972 l 908 972 l 908 897 q 822 806 851 887 l 545 0 z "},"W":{"ha":1261,"x_min":-36,"x_max":1303,"o":"m 486 0 l 283 0 l 39 836 q -36 897 24 887 l -36 972 l 345 972 l 345 897 q 310 880 322 895 q 297 844 297 865 q 303 817 297 833 l 436 278 l 550 700 l 508 839 q 442 897 493 889 l 442 972 l 822 972 l 822 897 q 782 879 797 893 q 767 844 767 865 q 769 834 767 842 q 772 822 772 827 l 911 275 l 1056 806 q 1061 847 1061 839 q 1006 897 1061 889 l 1006 972 l 1303 972 l 1303 897 q 1219 814 1241 883 l 958 0 l 755 0 l 620 486 l 486 0 z "},"X":{"ha":914,"x_min":-42,"x_max":947,"o":"m 294 0 l -42 0 l -42 75 q 67 147 28 93 l 314 500 l 81 836 q -14 897 43 893 l -14 972 l 419 972 l 419 897 q 382 889 397 897 q 367 867 367 881 q 378 839 367 862 l 494 667 l 606 822 q 617 856 617 838 q 600 885 617 873 q 558 897 583 897 l 558 972 l 906 972 l 906 897 q 786 817 841 890 l 586 542 l 861 133 q 947 75 892 87 l 947 0 l 522 0 l 522 75 q 556 83 542 75 q 569 105 569 91 q 558 139 569 124 l 406 372 l 253 153 q 231 105 231 113 q 294 75 231 79 l 294 0 z "},"Y":{"ha":806,"x_min":-42,"x_max":847,"o":"m 228 0 l 228 75 q 266 85 253 79 q 284 102 278 90 q 289 139 289 114 l 289 397 l 39 828 q -42 897 2 891 l -42 972 l 356 972 l 356 897 q 308 864 308 893 q 319 828 308 857 l 461 575 l 589 822 q 597 853 597 839 q 550 897 597 888 l 550 972 l 847 972 l 847 897 q 805 878 820 891 q 775 836 789 864 l 539 397 l 539 139 q 543 102 539 114 q 559 85 548 90 q 594 75 571 79 l 594 0 l 228 0 z "},"Z":{"ha":897,"x_min":0,"x_max":867,"o":"m 0 0 l 0 103 l 519 830 l 244 830 q 175 810 197 830 q 142 742 153 789 l 72 742 l 72 972 l 844 972 l 844 867 l 325 142 l 622 142 q 736 173 699 142 q 792 280 772 205 l 867 280 l 867 0 l 0 0 z "},"[":{"ha":517,"x_min":158,"x_max":439,"o":"m 158 972 l 439 972 l 439 881 q 377 876 396 881 q 350 854 358 871 q 342 794 342 836 l 342 -114 q 350 -174 342 -157 q 376 -196 358 -192 q 439 -203 393 -201 l 439 -294 l 158 -294 l 158 972 z "},"\\":{"ha":397,"x_min":-42,"x_max":392,"o":"m 278 -128 l -42 997 l 72 997 l 392 -128 l 278 -128 z "},"]":{"ha":517,"x_min":67,"x_max":345,"o":"m 345 972 l 345 -294 l 67 -294 l 67 -203 q 128 -196 111 -201 q 153 -174 145 -192 q 161 -114 161 -157 l 161 794 q 153 854 161 836 q 126 876 144 871 q 67 881 108 881 l 67 972 l 345 972 z "},"^":{"ha":1400,"x_min":280,"x_max":1108,"o":"m 614 995 l 775 995 l 1108 608 l 1030 608 l 692 861 l 356 608 l 280 608 l 614 995 z "},"_":{"ha":700,"x_min":0,"x_max":694,"o":"m 0 -189 l 694 -189 l 694 -325 l 0 -325 l 0 -189 z "},"`":{"ha":700,"x_min":119,"x_max":492,"o":"m 492 764 l 417 764 l 194 875 q 143 910 166 887 q 119 958 119 933 q 142 1006 119 983 q 192 1028 164 1028 q 306 964 242 1028 l 492 764 z "},"a":{"ha":792,"x_min":28,"x_max":739,"o":"m 464 189 l 464 350 q 308 288 360 331 q 256 200 256 245 q 280 147 256 169 q 339 125 304 125 q 464 189 404 125 m 480 0 l 480 53 q 372 1 422 18 q 264 -17 321 -17 q 119 25 183 -17 q 36 144 56 66 q 28 197 28 194 q 99 339 28 284 q 251 417 170 393 q 464 467 333 440 l 464 472 q 434 549 464 527 q 342 572 405 572 q 236 550 282 572 q 172 475 190 527 l 78 475 l 78 631 q 378 686 239 686 q 464 683 436 686 q 661 589 607 667 q 689 431 689 539 l 689 125 q 700 87 689 97 q 739 72 710 77 l 739 0 l 480 0 z "},"b":{"ha":853,"x_min":33,"x_max":800,"o":"m 317 117 q 497 186 440 122 q 543 270 527 220 q 558 372 558 319 l 558 414 q 523 519 556 484 q 439 555 490 555 q 317 511 384 555 l 317 117 m 33 0 l 33 72 q 74 86 64 76 q 83 125 83 97 l 83 847 q 73 888 83 878 q 33 900 63 898 l 33 972 l 317 972 l 317 631 q 517 686 411 686 q 704 624 625 686 q 797 445 784 563 q 800 380 800 425 q 783 268 800 323 q 731 164 765 212 q 650 86 697 117 q 328 0 528 0 l 33 0 z "},"c":{"ha":730,"x_min":36,"x_max":717,"o":"m 606 197 l 667 197 l 667 17 q 461 -14 566 -14 q 289 11 373 -14 q 158 91 216 38 q 68 214 99 144 q 36 361 36 284 q 37 377 36 366 q 39 394 39 389 q 78 523 45 467 q 161 614 110 578 q 278 668 212 650 q 414 686 343 686 l 428 686 q 717 578 596 686 l 603 428 l 550 455 q 555 489 555 478 q 529 547 555 523 q 461 572 503 570 l 442 572 q 325 512 364 572 q 286 367 286 452 q 285 358 286 366 q 283 350 283 351 q 313 219 283 274 q 387 134 342 163 q 480 105 433 105 q 557 130 522 105 q 606 197 592 154 z "},"d":{"ha":853,"x_min":39,"x_max":808,"o":"m 528 161 l 528 555 q 389 521 445 554 q 305 429 333 488 q 278 292 278 371 q 279 278 278 288 q 280 261 280 267 q 320 151 287 189 q 403 114 353 114 q 528 161 457 114 m 539 0 l 539 50 q 328 -17 416 -17 l 319 -17 q 147 46 221 -13 q 50 200 73 105 q 39 283 39 256 q 88 471 39 381 q 219 606 137 561 q 358 656 283 643 q 528 672 432 669 l 528 844 q 518 885 528 875 q 478 897 508 895 l 478 972 l 761 972 l 761 125 q 771 87 761 97 q 808 72 780 76 l 808 0 l 539 0 z "},"e":{"ha":775,"x_min":39,"x_max":725,"o":"m 272 445 l 483 445 q 459 536 483 496 q 389 575 435 575 l 386 575 q 272 445 295 575 m 725 44 q 447 -14 574 -14 q 294 8 375 -14 q 106 135 174 43 q 39 345 39 228 q 50 439 39 378 q 176 623 76 557 q 400 689 276 689 q 503 678 440 689 q 671 567 622 651 q 720 356 720 484 l 720 342 l 267 342 q 480 111 286 111 q 485 110 482 111 q 489 108 488 108 q 594 135 546 108 q 661 211 641 162 l 725 211 l 725 44 z "},"f":{"ha":472,"x_min":31,"x_max":533,"o":"m 50 0 l 50 72 q 90 86 80 76 q 100 125 100 97 l 100 561 l 31 561 l 31 672 l 100 672 q 108 819 100 764 q 152 918 116 874 q 264 983 188 963 q 367 997 319 997 q 533 969 445 997 l 533 803 l 447 803 q 394 881 447 881 l 383 881 q 331 750 331 874 q 332 706 331 733 q 333 672 333 679 l 453 672 l 453 561 l 333 561 l 333 125 l 331 117 q 392 72 331 72 l 392 0 l 50 0 z "},"g":{"ha":853,"x_min":22,"x_max":806,"o":"m 528 558 q 422 542 468 556 q 342 492 376 528 q 294 406 310 458 q 278 300 278 353 q 279 284 278 296 q 280 270 280 273 q 319 162 285 199 q 403 125 353 125 q 528 172 457 125 l 528 558 m 536 56 q 322 -3 420 -3 q 171 39 237 -3 q 71 150 106 81 q 36 297 36 218 q 87 475 36 390 q 244 615 138 561 q 506 669 350 669 l 511 672 l 806 672 l 806 603 q 769 588 780 598 q 758 550 758 578 l 758 103 q 773 30 758 78 q 789 -44 788 -18 q 740 -179 787 -122 q 617 -267 693 -236 q 380 -308 501 -308 q 261 -297 339 -308 q 22 -144 119 -267 l 186 -17 l 233 -64 q 228 -86 228 -75 q 264 -150 228 -127 q 370 -180 302 -180 q 445 -172 411 -180 q 507 -142 479 -164 q 551 -90 535 -120 q 567 -28 567 -60 q 536 56 567 16 z "},"h":{"ha":853,"x_min":33,"x_max":803,"o":"m 33 0 l 33 72 q 74 86 64 76 q 83 125 83 97 l 83 847 q 73 888 83 878 q 33 900 63 898 l 33 972 l 317 972 l 317 622 q 508 686 402 686 l 550 686 q 710 605 664 674 q 755 419 755 536 l 755 125 q 766 88 755 99 q 803 72 777 77 l 803 0 l 472 0 l 472 72 q 514 87 503 77 q 525 125 525 97 l 525 425 q 502 519 525 489 q 442 550 480 550 q 380 533 414 550 q 317 486 346 515 l 317 125 q 326 86 317 96 q 364 72 334 76 l 364 0 l 33 0 z "},"i":{"ha":428,"x_min":44,"x_max":380,"o":"m 81 872 q 116 961 81 929 q 200 992 151 992 q 261 977 231 992 q 311 935 292 963 q 331 872 331 907 q 329 859 331 868 q 328 844 328 849 q 284 771 320 798 q 205 744 248 744 q 119 779 156 744 q 81 872 81 814 m 44 0 l 44 72 q 84 86 74 74 q 95 125 95 98 l 95 550 q 85 589 95 579 q 44 603 76 599 l 44 672 l 328 672 l 328 125 q 339 87 328 97 q 380 72 350 77 l 380 0 l 44 0 z "},"j":{"ha":411,"x_min":-83,"x_max":328,"o":"m -83 -292 l -83 -111 l -14 -111 q 36 -172 4 -162 q 61 -175 44 -175 q 117 -144 99 -175 q 125 -105 125 -127 q 110 -39 125 -84 q 95 25 95 5 l 95 550 q 82 588 95 578 q 39 603 70 598 l 39 672 l 328 672 l 328 -58 q 286 -199 326 -136 q 178 -289 247 -262 q 61 -306 124 -306 q -83 -292 31 -306 m 72 872 q 108 960 72 929 q 192 992 144 992 q 253 977 222 992 q 303 935 283 963 q 322 872 322 907 q 321 859 322 868 q 319 844 319 849 q 277 771 312 797 q 200 744 242 744 q 139 760 169 744 q 91 805 109 776 q 72 872 72 834 z "},"k":{"ha":853,"x_min":33,"x_max":833,"o":"m 33 0 l 33 72 q 74 86 64 76 q 83 125 83 97 l 83 847 q 73 888 83 878 q 33 900 63 898 l 33 972 l 317 972 l 317 411 l 475 555 q 489 581 489 570 q 477 597 489 591 q 447 603 465 603 l 447 672 l 789 672 l 789 603 q 697 567 731 597 l 553 450 l 772 111 q 833 72 791 72 l 833 0 l 472 0 l 472 72 q 511 95 511 72 q 503 122 511 110 l 389 317 l 317 256 q 314 209 317 249 q 311 147 311 169 q 319 89 311 122 q 364 72 330 72 l 364 0 l 33 0 z "},"l":{"ha":428,"x_min":44,"x_max":380,"o":"m 44 0 l 44 72 q 84 86 74 74 q 95 125 95 98 l 95 847 q 84 887 95 877 q 44 900 74 898 l 44 972 l 328 972 l 328 125 q 339 87 328 97 q 380 72 350 77 l 380 0 l 44 0 z "},"m":{"ha":1292,"x_min":42,"x_max":1253,"o":"m 42 0 l 42 72 q 80 86 71 76 q 89 125 89 96 l 89 550 q 80 589 89 579 q 42 603 71 599 l 42 672 l 308 672 l 308 611 q 414 669 358 648 q 522 689 469 689 q 632 666 578 689 q 725 600 685 644 q 958 689 853 689 q 982 687 968 689 q 1003 686 996 686 q 1158 605 1114 674 q 1203 419 1203 536 l 1203 125 q 1214 88 1203 99 q 1253 72 1226 77 l 1253 0 l 920 0 l 920 72 q 962 86 951 76 q 972 125 972 97 l 972 425 q 950 519 972 489 q 889 550 927 550 q 827 532 861 550 q 764 486 792 515 l 764 125 q 775 88 764 99 q 814 72 786 77 l 814 0 l 480 0 l 480 72 q 522 87 511 77 q 533 125 533 97 l 533 425 q 509 519 533 488 q 447 550 486 550 q 322 486 391 550 l 322 125 q 333 87 322 99 q 372 72 345 76 l 372 0 l 42 0 z "},"n":{"ha":853,"x_min":42,"x_max":814,"o":"m 42 0 l 42 72 q 80 86 71 76 q 89 125 89 96 l 89 550 q 80 589 89 579 q 42 603 71 599 l 42 672 l 308 672 l 308 611 q 517 686 409 686 l 558 686 q 719 606 673 674 q 764 419 764 537 l 764 125 q 775 88 764 99 q 814 72 786 77 l 814 0 l 480 0 l 480 72 q 522 87 511 77 q 533 125 533 97 l 533 425 q 509 519 533 488 q 447 550 486 550 q 322 486 391 550 l 322 125 q 333 87 322 99 q 372 72 345 76 l 372 0 l 42 0 z "},"o":{"ha":853,"x_min":39,"x_max":794,"o":"m 42 336 l 39 336 q 70 486 39 420 q 154 596 100 552 q 273 662 207 640 q 411 683 340 683 q 551 661 483 683 q 675 595 620 638 q 762 486 730 551 q 794 342 794 422 q 789 264 794 319 q 742 144 777 196 q 656 56 707 92 q 545 4 606 21 q 422 -14 485 -14 q 239 27 327 -14 q 96 146 151 67 q 42 333 42 225 l 42 336 m 286 336 q 317 183 286 252 q 419 114 347 114 q 427 115 420 114 q 436 117 433 117 q 550 336 550 133 q 436 555 550 543 l 419 555 q 317 487 347 555 q 286 336 286 419 z "},"p":{"ha":853,"x_min":33,"x_max":800,"o":"m 33 -306 l 33 -236 q 74 -220 64 -230 q 83 -183 83 -210 l 83 550 q 73 589 83 578 q 33 603 63 599 l 33 672 l 300 672 l 300 617 q 514 686 399 686 l 528 686 q 710 617 636 682 q 797 445 783 553 q 800 383 800 425 q 761 216 800 297 q 653 86 722 135 q 502 21 584 39 q 317 0 419 2 l 317 -183 q 326 -220 317 -210 q 364 -236 334 -230 l 364 -306 l 33 -306 m 317 494 l 317 100 q 497 170 436 102 q 558 356 558 237 l 558 397 q 523 503 556 467 q 439 539 490 539 q 317 494 384 539 z "},"q":{"ha":853,"x_min":36,"x_max":806,"o":"m 478 -306 l 478 -236 q 517 -219 507 -230 q 528 -183 528 -209 l 528 42 q 322 -17 425 -17 q 218 4 268 -15 q 130 58 169 22 q 70 142 91 94 q 36 283 36 218 q 48 378 36 330 q 85 470 61 427 q 139 545 109 513 q 511 672 263 672 l 806 672 l 806 603 q 769 588 780 598 q 758 550 758 578 l 758 -183 q 769 -219 758 -209 q 806 -236 779 -230 l 806 -306 l 478 -306 m 528 555 q 342 489 400 550 q 294 399 310 452 q 278 292 278 346 q 279 277 278 288 q 280 261 280 266 q 318 151 285 189 q 400 114 350 114 q 528 161 457 114 l 528 555 z "},"r":{"ha":547,"x_min":36,"x_max":539,"o":"m 36 0 l 36 72 q 78 87 67 77 q 89 125 89 97 l 89 550 q 78 588 89 578 q 36 603 66 599 l 36 672 l 289 672 l 289 600 q 483 686 367 686 q 511 685 492 686 q 539 683 531 683 l 539 492 l 467 492 q 442 533 460 518 q 400 547 424 547 q 367 542 388 547 q 317 419 317 517 q 318 414 317 418 q 319 408 319 410 l 319 125 q 329 87 319 98 q 367 72 339 76 l 367 0 l 36 0 z "},"s":{"ha":730,"x_min":8,"x_max":683,"o":"m 8 89 l 119 244 l 186 222 q 178 180 178 188 q 203 136 178 153 q 322 100 251 100 q 350 103 331 100 q 375 105 369 105 q 431 126 406 107 q 455 175 455 145 l 455 183 q 435 217 454 206 q 383 236 415 228 q 218 282 279 261 q 107 347 158 303 q 56 461 56 392 q 59 491 56 471 q 64 517 63 511 q 160 640 83 598 q 331 686 236 681 l 372 686 q 672 597 536 686 l 569 453 l 508 475 l 508 489 q 475 553 508 530 q 397 575 443 575 l 375 575 q 310 553 337 573 q 283 511 283 533 q 325 467 283 485 q 417 441 358 455 q 505 419 476 427 q 572 391 534 411 q 636 342 609 372 q 683 214 683 290 q 647 95 683 149 q 565 28 614 53 q 459 -7 515 3 q 345 -17 404 -17 l 325 -17 q 8 89 140 -8 z "},"t":{"ha":533,"x_min":28,"x_max":525,"o":"m 525 14 q 336 -17 429 -17 q 261 -11 311 -17 q 100 200 100 11 l 100 561 l 28 561 l 28 672 l 100 672 l 100 853 l 331 903 l 331 672 l 486 672 l 486 561 l 331 561 l 331 192 q 343 124 331 149 q 394 100 356 100 q 461 178 452 103 l 525 178 l 525 14 z "},"u":{"ha":853,"x_min":33,"x_max":803,"o":"m 539 0 l 539 64 q 319 -14 440 -14 l 286 -14 q 128 67 173 -2 q 83 256 83 137 l 83 550 q 73 589 83 578 q 33 603 63 599 l 33 672 l 314 672 l 314 250 q 337 153 314 186 q 397 119 360 119 q 458 138 423 119 q 525 189 493 157 l 525 550 q 514 588 525 578 q 472 603 503 599 l 472 672 l 755 672 l 755 125 q 765 87 755 97 q 803 72 774 77 l 803 0 l 539 0 z "},"v":{"ha":761,"x_min":-11,"x_max":758,"o":"m 483 0 l 264 0 l 56 547 q 31 589 43 578 q -11 603 18 601 l -11 672 l 345 672 l 345 603 q 313 593 324 603 q 303 567 303 583 q 308 542 303 558 l 422 203 l 533 542 q 539 569 539 564 q 492 603 539 603 l 492 672 l 758 672 l 758 603 q 689 547 713 596 l 483 0 z "},"w":{"ha":1081,"x_min":-11,"x_max":1081,"o":"m 233 0 l 47 547 q 27 589 38 577 q -11 603 16 601 l -11 672 l 319 672 l 319 603 q 293 592 302 603 q 283 567 283 581 q 289 542 283 558 l 375 247 l 469 528 q 444 584 456 567 q 403 603 432 601 l 403 672 l 730 672 l 730 603 q 702 592 713 603 q 692 567 692 581 q 697 542 692 558 l 783 247 l 872 542 q 875 567 875 550 q 833 603 875 603 l 833 672 l 1081 672 l 1081 603 q 1022 547 1036 594 l 839 0 l 642 0 l 539 345 l 431 0 l 233 0 z "},"x":{"ha":775,"x_min":-8,"x_max":772,"o":"m 292 0 l -8 0 l -8 72 q 56 100 23 72 l 270 333 l 89 567 q 11 603 64 603 l 11 672 l 383 672 l 383 603 q 361 597 369 603 q 353 583 353 591 q 365 555 353 572 q 391 521 376 537 q 417 492 405 505 q 439 515 418 493 q 473 554 459 537 q 486 583 486 572 l 486 592 q 450 603 480 603 l 450 672 l 758 672 l 758 603 q 664 555 694 598 l 497 383 l 708 105 q 772 72 740 79 l 772 0 l 400 0 l 400 72 q 404 71 402 72 q 408 70 407 70 q 436 89 436 70 q 425 123 436 102 q 400 163 414 144 q 373 198 386 182 q 353 222 360 214 l 256 117 q 239 92 239 100 q 292 72 239 72 l 292 0 z "},"y":{"ha":761,"x_min":-11,"x_max":758,"o":"m 19 -280 l 19 -89 l 103 -89 q 189 -172 116 -172 q 225 -170 214 -172 q 277 -140 259 -163 q 294 -86 294 -116 q 286 -42 294 -63 l 56 547 q 31 589 43 578 q -11 603 18 601 l -11 672 l 345 672 l 345 603 q 312 593 324 603 q 300 567 300 582 q 300 567 300 567 q 308 542 300 567 l 422 222 l 533 542 q 539 569 539 564 q 492 603 539 603 l 492 672 l 758 672 l 758 603 q 689 547 713 596 l 467 -64 q 388 -216 435 -156 q 261 -297 341 -276 q 170 -306 215 -306 q 19 -280 94 -306 z "},"z":{"ha":700,"x_min":28,"x_max":645,"o":"m 645 0 l 28 0 l 28 103 l 336 550 l 256 550 q 150 542 175 550 q 117 492 117 528 l 53 492 l 53 672 l 628 672 l 628 572 l 319 131 l 469 131 q 583 211 558 131 l 645 211 l 645 0 z "},"{":{"ha":700,"x_min":122,"x_max":578,"o":"m 578 1028 l 578 989 q 483 962 515 985 q 443 903 452 939 q 433 808 433 866 q 435 786 433 801 q 436 764 436 771 l 436 689 q 425 569 436 616 q 378 488 414 522 q 267 433 341 453 q 378 376 341 412 q 425 293 414 340 q 436 172 436 245 l 436 100 q 435 70 436 90 q 433 42 433 50 q 443 -47 433 -13 q 484 -101 453 -81 q 578 -125 516 -121 l 578 -164 q 425 -149 479 -163 q 346 -102 372 -134 q 313 -16 320 -69 q 306 136 306 38 l 306 175 q 295 300 306 258 q 246 369 285 343 q 122 408 207 396 l 122 455 q 246 493 207 466 q 295 562 285 519 q 306 686 306 605 l 306 728 q 313 879 306 826 q 346 964 320 932 q 425 1011 372 997 q 578 1028 479 1026 z "},"|":{"ha":700,"x_min":278,"x_max":419,"o":"m 278 1061 l 419 1061 l 419 -325 l 278 -325 l 278 1061 z "},"}":{"ha":700,"x_min":117,"x_max":575,"o":"m 117 1028 q 270 1011 216 1026 q 352 964 325 997 q 386 879 378 932 q 394 728 394 827 q 393 700 394 719 q 392 675 392 682 q 403 558 392 600 q 454 491 414 516 q 575 455 493 466 l 575 408 q 454 372 493 397 q 403 304 414 347 q 392 186 392 262 q 393 162 392 180 q 394 136 394 145 q 386 -16 394 36 q 352 -101 378 -68 q 270 -148 325 -134 q 117 -164 216 -163 l 117 -125 q 209 -101 178 -121 q 249 -49 240 -81 q 258 36 258 -17 l 258 100 q 257 137 258 113 q 256 172 256 161 q 267 293 256 246 q 317 376 279 340 q 431 433 355 412 q 317 488 355 453 q 267 569 279 522 q 256 689 256 615 q 257 725 256 700 q 258 764 258 751 l 258 825 q 249 911 258 878 q 209 965 240 944 q 117 989 179 985 l 117 1028 z "},"~":{"ha":1400,"x_min":280,"x_max":1111,"o":"m 1061 906 l 1111 883 q 1017 743 1075 786 q 881 700 959 700 q 807 708 844 700 q 686 739 769 716 q 573 770 616 760 q 492 781 531 781 q 328 692 391 781 l 280 720 q 514 900 351 900 q 722 861 591 900 q 776 846 728 860 q 850 826 823 831 q 903 820 877 820 q 1061 906 999 820 z "},"":{"ha":836,"x_min":0,"x_max":0,"o":""},"‚":{"ha":564,"x_min":0,"x_max":0,"o":""},"ƒ":{"ha":564,"x_min":0,"x_max":0,"o":""},"„":{"ha":564,"x_min":0,"x_max":0,"o":""},"…":{"ha":564,"x_min":0,"x_max":0,"o":""},"†":{"ha":564,"x_min":0,"x_max":0,"o":""},"‡":{"ha":564,"x_min":0,"x_max":0,"o":""},"‰":{"ha":564,"x_min":0,"x_max":0,"o":""},"Š":{"ha":564,"x_min":0,"x_max":0,"o":""},"‹":{"ha":1172,"x_min":180,"x_max":978,"o":"m 978 808 l 978 664 l 372 417 l 978 167 l 978 19 l 180 347 l 180 483 l 978 808 z "},"Œ":{"ha":564,"x_min":0,"x_max":0,"o":""},"‘":{"ha":367,"x_min":47,"x_max":303,"o":"m 205 997 l 264 942 q 206 867 227 902 q 180 789 185 832 l 200 789 q 276 758 249 789 q 303 686 303 728 q 271 603 303 639 q 183 567 239 567 q 84 613 121 567 q 47 722 47 660 l 50 730 q 94 863 54 803 q 205 997 133 922 z "},"’":{"ha":367,"x_min":50,"x_max":308,"o":"m 150 567 l 92 625 q 180 778 171 705 q 166 777 176 778 q 153 775 155 775 q 77 802 104 775 q 50 869 50 829 q 86 955 50 916 q 178 995 122 995 l 203 995 q 281 940 254 985 q 308 839 308 896 q 307 819 308 833 q 306 800 306 805 q 254 684 293 737 q 150 567 215 632 z "},"“":{"ha":700,"x_min":47,"x_max":639,"o":"m 545 997 l 600 939 q 514 789 520 859 l 533 789 q 611 758 582 789 q 639 686 639 727 q 607 603 639 639 q 519 567 575 567 q 421 612 459 567 q 383 717 383 657 q 385 723 383 718 q 386 730 386 728 q 431 867 390 804 q 545 997 473 929 m 205 997 l 264 939 q 180 789 187 862 l 200 789 q 276 758 249 789 q 303 686 303 728 q 271 603 303 639 q 183 567 239 567 q 84 613 121 567 q 47 722 47 660 l 50 730 q 94 863 54 803 q 205 997 133 922 z "},"”":{"ha":700,"x_min":50,"x_max":645,"o":"m 486 567 l 431 625 q 489 699 467 665 q 514 775 510 734 q 500 774 509 775 q 489 772 491 772 q 413 801 440 772 q 386 869 386 829 q 422 955 386 916 q 514 995 459 995 l 539 995 q 617 939 590 985 q 645 839 645 893 q 643 818 645 831 q 642 800 642 805 q 589 682 629 736 q 486 567 549 628 m 150 567 l 92 625 q 180 775 171 704 q 166 774 175 775 q 156 772 158 772 q 78 801 106 772 q 50 869 50 830 q 86 955 50 916 q 178 995 122 995 l 203 995 q 281 940 253 985 q 308 839 308 895 q 307 819 308 833 q 306 800 306 805 q 252 682 293 736 q 150 567 212 627 z "},"–":{"ha":700,"x_min":0,"x_max":694,"o":"m 694 270 l 0 270 l 0 414 l 694 414 l 694 270 z "},"—":{"ha":1400,"x_min":0,"x_max":1389,"o":"m 0 414 l 1389 414 l 1389 270 l 0 270 l 0 414 z "},"˜":{"ha":564,"x_min":0,"x_max":0,"o":""},"™":{"ha":564,"x_min":0,"x_max":0,"o":""},"š":{"ha":486,"x_min":53,"x_max":431,"o":"m 53 0 l 53 75 q 100 93 88 82 q 111 139 111 104 l 111 833 q 99 881 111 869 q 53 897 87 893 l 53 972 l 431 972 l 431 897 q 385 882 398 895 q 372 833 372 868 l 372 139 q 384 93 372 103 q 431 75 395 82 l 431 0 l 53 0 m 136 1197 q 151 1252 136 1229 q 191 1288 167 1276 q 242 1300 216 1300 q 315 1272 282 1300 q 347 1195 347 1243 q 316 1118 347 1147 q 244 1089 284 1089 q 169 1119 202 1089 q 136 1197 136 1150 z "},"›":{"ha":428,"x_min":44,"x_max":380,"o":"m 44 0 l 44 72 q 84 86 74 74 q 95 125 95 98 l 95 550 q 85 589 95 579 q 44 603 76 599 l 44 672 l 328 672 l 328 125 q 339 87 328 97 q 380 72 350 77 l 380 0 l 44 0 z "},"œ":{"ha":1003,"x_min":8,"x_max":942,"o":"m 8 217 l 225 372 l 289 314 q 258 233 258 270 q 328 142 258 173 q 486 111 397 111 q 589 125 529 111 q 665 168 633 137 q 697 239 697 199 q 689 283 697 262 q 635 339 674 321 q 531 372 595 357 l 345 422 q 182 485 249 446 q 89 597 116 524 q 70 692 70 650 q 105 822 70 759 q 200 922 140 885 q 464 997 307 997 q 600 983 532 997 q 906 803 755 948 l 739 647 l 667 689 q 668 707 667 694 q 669 725 669 719 q 614 830 669 795 q 475 864 552 864 q 408 856 437 864 q 339 817 369 847 q 308 750 308 786 q 311 740 308 747 q 314 728 314 733 q 334 692 319 706 q 367 670 348 678 q 409 657 386 663 q 453 647 432 652 l 617 603 q 753 561 695 584 q 858 497 810 538 q 928 394 906 456 q 942 306 942 349 q 902 159 942 229 q 797 47 863 90 q 492 -25 679 -25 q 358 -17 420 -25 q 216 24 277 -6 q 107 100 155 54 q 8 217 59 146 m 292 -256 l 322 -189 q 365 -209 333 -194 q 425 -233 396 -223 q 478 -242 455 -242 q 536 -217 515 -242 q 542 -189 542 -206 q 519 -142 542 -155 q 480 -131 498 -131 q 436 -139 475 -131 l 436 0 l 500 0 l 500 -81 q 523 -78 507 -81 q 547 -75 538 -75 q 653 -122 617 -75 q 669 -186 669 -147 q 647 -264 669 -229 q 522 -319 607 -319 q 292 -256 442 -319 z "},"":{"ha":730,"x_min":8,"x_max":683,"o":"m 8 89 l 119 244 l 186 222 q 178 180 178 188 q 203 136 178 153 q 322 100 251 100 q 350 103 331 100 q 375 105 369 105 q 431 126 406 107 q 455 175 455 145 l 455 183 q 435 217 454 206 q 383 236 415 228 q 218 282 279 261 q 107 347 158 303 q 56 461 56 392 q 59 491 56 471 q 64 517 63 511 q 160 640 83 598 q 331 686 236 681 l 372 686 q 672 597 536 686 l 569 453 l 508 475 l 508 489 q 475 553 508 530 q 397 575 443 575 l 375 575 q 310 553 337 573 q 283 511 283 533 q 325 467 283 485 q 417 441 358 455 q 505 419 476 427 q 572 391 534 411 q 636 342 609 372 q 683 214 683 290 q 647 95 683 149 q 565 28 614 53 q 459 -7 515 3 q 345 -17 404 -17 l 325 -17 q 8 89 140 -8 m 156 -256 l 189 -189 q 232 -209 203 -195 q 290 -233 262 -223 q 342 -242 319 -242 q 400 -217 379 -242 q 408 -189 408 -209 q 401 -162 408 -176 q 383 -142 394 -148 q 345 -131 362 -131 q 303 -139 334 -131 l 303 0 l 364 0 l 364 -81 q 389 -78 372 -81 q 414 -75 406 -75 q 517 -122 481 -75 q 533 -186 533 -148 q 511 -264 533 -228 q 386 -319 474 -319 q 156 -256 306 -319 z "},"":{"ha":1142,"x_min":31,"x_max":1067,"o":"m 1067 70 l 1067 -5 q 957 -13 1034 -7 q 831 -20 880 -18 q 739 -22 782 -22 q 370 36 523 -22 q 123 220 216 95 q 31 500 31 344 q 33 529 31 508 q 36 558 36 550 q 90 732 47 654 q 201 866 133 809 q 355 955 269 922 q 533 995 440 987 q 568 996 544 995 q 603 997 592 997 q 759 978 687 997 q 897 920 831 959 q 1030 820 962 881 l 856 642 l 792 681 q 797 722 797 708 q 771 787 797 759 q 702 828 745 814 q 608 842 658 842 q 462 813 532 842 q 356 730 392 784 q 313 635 329 690 q 297 525 297 579 q 320 389 297 458 q 380 270 342 321 q 542 159 444 191 q 761 128 641 128 l 761 400 q 748 447 761 434 q 700 467 735 460 l 700 539 l 1067 539 l 1067 467 q 1020 448 1031 460 q 1008 400 1008 435 l 1008 133 q 1013 99 1008 111 q 1030 80 1018 86 q 1067 70 1042 74 m 345 1319 l 414 1319 l 561 1203 l 711 1319 l 781 1319 l 625 1069 l 500 1069 l 345 1319 z "},"Ÿ":{"ha":853,"x_min":22,"x_max":806,"o":"m 528 558 q 422 542 468 556 q 342 492 376 528 q 294 406 310 458 q 278 300 278 353 q 279 284 278 296 q 280 270 280 273 q 319 162 285 199 q 403 125 353 125 q 528 172 457 125 l 528 558 m 536 56 q 322 -3 420 -3 q 171 39 237 -3 q 71 150 106 81 q 36 297 36 218 q 87 475 36 390 q 244 615 138 561 q 506 669 350 669 l 511 672 l 806 672 l 806 603 q 769 588 780 598 q 758 550 758 578 l 758 103 q 773 30 758 78 q 789 -44 788 -18 q 740 -179 787 -122 q 617 -267 693 -236 q 380 -308 501 -308 q 261 -297 339 -308 q 22 -144 119 -267 l 186 -17 l 233 -64 q 228 -86 228 -75 q 264 -150 228 -127 q 370 -180 302 -180 q 445 -172 411 -180 q 507 -142 479 -164 q 551 -90 535 -120 q 567 -28 567 -60 q 536 56 567 16 m 203 1014 l 272 1014 l 422 897 l 569 1014 l 639 1014 l 483 764 l 358 764 l 203 1014 z "},"¡":{"ha":442,"x_min":78,"x_max":356,"o":"m 89 869 q 126 957 89 920 q 214 995 163 995 l 242 995 q 312 949 283 986 q 342 869 342 911 q 340 857 342 864 q 339 844 339 849 q 294 769 331 797 q 214 742 257 742 q 127 777 165 742 q 89 869 89 812 m 280 675 l 350 197 q 356 117 356 144 q 325 18 356 54 q 217 -17 295 -17 q 109 18 140 -17 q 78 114 78 52 q 81 156 78 129 q 86 197 85 182 l 153 675 l 280 675 z "},"¨":{"ha":700,"x_min":117,"x_max":575,"o":"m 117 889 q 146 956 117 932 q 214 981 175 981 q 284 956 253 981 q 314 889 314 932 q 283 818 314 844 q 214 792 252 792 q 147 818 177 792 q 117 886 117 845 l 117 889 m 383 889 q 411 956 383 932 q 478 981 439 981 q 546 956 517 981 q 575 889 575 932 q 545 818 575 844 q 478 792 516 792 q 413 818 442 792 q 383 886 383 845 l 383 889 z "},"©":{"ha":1156,"x_min":75,"x_max":1067,"o":"m 572 958 q 762 919 671 958 q 920 809 852 879 q 1028 650 989 740 q 1067 461 1067 559 l 1067 417 q 983 188 1053 292 q 803 24 913 84 q 569 -36 694 -36 q 338 24 447 -36 q 160 186 229 83 q 78 414 90 290 q 76 436 78 421 q 75 458 75 451 q 114 647 75 556 q 222 809 153 739 q 382 919 292 879 q 572 958 473 958 m 572 889 l 567 889 q 406 854 482 889 q 271 757 329 819 q 180 617 212 695 q 147 455 147 538 q 151 414 147 440 q 156 375 154 388 q 237 202 176 279 q 385 80 297 124 q 569 36 472 36 q 781 93 683 36 q 939 248 880 151 q 997 458 997 346 q 939 672 997 573 q 783 830 881 771 q 572 889 685 889 m 767 747 l 794 747 l 794 528 l 764 528 q 704 656 738 610 q 597 711 669 702 l 575 711 q 459 638 491 711 q 428 464 428 565 q 581 208 428 218 q 586 207 582 208 q 592 205 591 205 q 778 325 687 205 l 806 308 q 564 158 710 158 q 543 161 557 158 q 522 164 529 164 q 422 200 467 172 q 345 268 377 227 q 295 360 312 310 q 278 461 278 410 q 336 639 278 559 q 438 721 377 692 q 567 750 499 750 q 708 711 635 750 q 725 706 719 706 q 750 718 739 706 q 767 747 762 731 z "},"ª":{"ha":594,"x_min":22,"x_max":553,"o":"m 347 631 l 347 744 q 231 700 270 731 q 192 639 192 670 q 209 602 192 617 q 253 586 226 586 q 347 631 303 586 m 358 500 l 358 536 q 200 489 273 489 q 89 517 137 489 q 28 600 42 546 q 22 636 22 622 q 74 734 22 696 q 187 789 126 772 q 347 825 248 805 l 347 830 q 326 882 347 867 q 258 897 304 897 q 131 830 151 897 l 58 830 l 58 942 q 283 981 184 981 q 315 979 293 981 q 347 978 338 978 q 494 908 454 966 q 517 800 517 881 l 517 586 q 525 558 517 566 q 553 550 533 550 l 553 500 l 358 500 z "},"«":{"ha":744,"x_min":72,"x_max":667,"o":"m 239 125 l 72 339 l 239 555 l 394 555 l 222 339 l 394 125 l 239 125 m 514 125 l 345 339 l 514 555 l 667 555 l 500 339 l 667 125 l 514 125 z "},"¬":{"ha":1172,"x_min":172,"x_max":986,"o":"m 172 586 l 986 586 l 986 247 l 853 247 l 853 453 l 172 453 l 172 586 z "},"­":{"ha":472,"x_min":61,"x_max":403,"o":"m 403 258 l 61 258 l 61 422 l 403 422 l 403 258 z "},"®":{"ha":1156,"x_min":75,"x_max":1067,"o":"m 572 958 q 822 890 708 958 q 1001 707 936 822 q 1067 455 1067 591 l 1067 450 q 1027 265 1067 353 q 917 108 988 177 q 757 2 846 40 q 569 -36 667 -36 q 336 25 446 -35 q 157 188 227 85 q 78 417 87 292 q 76 437 78 424 q 75 458 75 451 q 113 647 75 557 q 221 809 152 738 q 381 919 290 879 q 572 958 472 958 m 572 889 l 567 889 q 406 854 482 889 q 271 760 329 820 q 180 622 212 699 q 147 461 147 544 q 149 441 147 456 q 150 419 150 427 q 219 225 159 314 q 371 86 278 137 q 569 36 465 36 q 769 87 675 36 q 923 227 863 138 q 995 422 983 316 l 995 458 q 962 621 995 542 q 870 760 929 699 q 735 854 812 820 q 572 889 659 889 m 317 744 l 589 744 q 737 713 669 744 q 806 611 806 682 l 806 608 q 754 513 806 542 q 620 469 702 485 q 699 436 668 454 q 750 383 730 418 q 765 344 762 361 q 772 290 768 327 q 781 244 775 254 q 790 233 783 238 q 803 228 797 228 q 828 242 814 228 q 844 319 844 261 l 881 319 l 881 303 q 830 197 881 226 q 755 178 797 178 q 672 205 705 178 q 641 309 645 234 q 618 420 637 385 q 517 455 600 455 l 517 292 l 514 286 q 583 228 514 233 l 583 194 l 317 194 l 317 228 q 389 292 385 228 l 389 647 q 370 694 387 683 q 317 708 354 706 l 317 744 m 517 492 q 530 490 520 492 q 545 489 540 489 q 653 531 615 489 q 672 600 672 554 q 667 647 672 620 q 626 693 657 675 q 567 711 596 711 q 517 667 517 711 l 517 492 z "},"¯":{"ha":836,"x_min":0,"x_max":0,"o":""},"°":{"ha":836,"x_min":0,"x_max":0,"o":""},"±":{"ha":1172,"x_min":172,"x_max":986,"o":"m 511 830 l 650 830 l 650 608 l 986 608 l 986 475 l 650 475 l 650 253 l 511 253 l 511 475 l 172 475 l 172 608 l 511 608 l 511 830 m 172 133 l 986 133 l 986 0 l 172 0 l 172 133 z "},"²":{"ha":564,"x_min":19,"x_max":506,"o":"m 506 386 l 19 386 q 62 525 19 470 q 194 638 105 579 q 313 721 284 697 q 342 789 342 745 l 342 803 q 307 863 338 841 q 233 886 275 886 l 228 886 q 103 789 129 886 l 36 789 l 36 920 q 247 972 142 972 q 277 971 255 972 q 308 969 298 969 q 449 914 392 961 q 506 792 506 867 q 478 703 506 743 q 403 636 450 662 q 318 591 379 622 q 221 537 257 559 q 153 486 184 515 l 370 486 q 427 495 410 486 q 450 536 444 505 l 506 536 l 506 386 z "},"³":{"ha":564,"x_min":25,"x_max":506,"o":"m 372 717 q 459 673 427 698 q 503 606 492 648 q 504 589 503 601 q 506 572 506 576 q 450 453 506 504 q 205 375 369 375 q 25 394 157 375 l 25 522 l 89 522 q 128 475 99 492 q 194 458 157 458 q 264 473 229 458 q 319 508 300 487 q 339 572 339 537 q 319 631 339 607 q 170 669 287 669 l 150 669 l 150 753 q 172 751 156 753 q 197 750 188 750 q 300 783 271 750 q 314 825 314 802 q 300 867 314 848 q 214 892 271 892 l 194 892 q 105 836 136 883 l 47 836 l 47 930 q 242 972 149 972 q 436 917 374 972 q 475 828 475 878 q 464 783 475 812 q 372 717 439 740 z "},"´":{"ha":700,"x_min":203,"x_max":572,"o":"m 203 764 l 392 964 q 500 1028 455 1028 q 553 1006 534 1028 q 572 958 572 986 q 551 910 572 933 q 503 875 530 887 l 280 764 l 203 764 z "},"µ":{"ha":822,"x_min":-81,"x_max":764,"o":"m 122 142 q 102 -26 113 81 q 83 -189 92 -134 q 55 -258 76 -229 q 0 -286 35 -286 q -28 -283 -19 -286 q -81 -203 -81 -272 q -77 -171 -81 -191 q -72 -144 -73 -151 q -8 76 -36 -17 q 36 253 19 170 l 108 600 l 283 600 l 217 289 q 208 245 216 278 q 200 192 200 211 q 214 138 200 162 q 256 105 229 114 q 268 103 260 105 q 278 100 276 100 q 360 148 327 100 q 406 253 393 196 l 478 600 l 653 600 l 572 239 q 568 217 572 236 q 563 187 565 199 q 561 164 561 175 q 581 111 561 135 q 611 97 594 97 q 659 114 626 97 q 688 164 670 123 q 714 220 705 204 q 739 236 724 236 l 747 236 q 759 225 755 234 q 764 205 764 215 q 761 187 764 197 q 756 170 759 177 q 750 153 753 162 q 633 -3 713 32 q 564 -14 607 -14 q 497 0 522 -14 q 454 44 466 15 q 436 119 443 73 q 275 -14 384 -14 l 253 -14 q 122 142 144 -7 z "},"¶":{"ha":700,"x_min":28,"x_max":667,"o":"m 667 1006 l 667 928 l 592 928 l 592 0 l 489 0 l 489 928 l 380 928 l 380 0 l 278 0 l 278 533 q 186 548 223 538 q 117 583 150 558 q 52 666 75 616 q 28 769 28 715 q 49 869 28 824 q 107 943 70 913 q 193 990 144 974 q 294 1006 242 1006 l 667 1006 z "},"∙":{"ha":428,"x_min":86,"x_max":333,"o":"m 86 486 q 122 577 86 545 q 208 608 158 608 q 269 594 240 608 q 316 552 298 579 q 333 489 333 525 l 333 461 q 290 388 326 414 q 211 361 254 361 q 124 395 162 361 q 86 486 86 429 z "},"¸":{"ha":700,"x_min":142,"x_max":519,"o":"m 142 -256 l 175 -189 q 218 -209 189 -195 q 276 -233 248 -223 q 328 -242 305 -242 q 386 -217 365 -242 q 394 -189 394 -209 q 387 -162 394 -176 q 370 -142 380 -148 q 331 -131 348 -131 q 311 -133 322 -131 q 289 -139 299 -136 l 289 0 l 350 0 l 350 -81 q 375 -78 358 -81 q 400 -75 392 -75 q 503 -122 467 -75 q 519 -186 519 -147 q 497 -264 519 -228 q 372 -319 460 -319 q 142 -256 292 -319 z "},"¹":{"ha":564,"x_min":97,"x_max":445,"o":"m 445 386 l 117 386 l 117 431 q 185 447 162 436 q 208 492 208 459 l 208 842 q 97 817 159 821 l 97 881 q 189 910 153 892 q 258 964 225 928 l 367 964 l 367 492 q 385 447 367 458 q 445 431 402 435 l 445 386 z "},"º":{"ha":639,"x_min":31,"x_max":597,"o":"m 31 736 q 70 870 31 814 q 172 953 109 925 q 308 981 236 981 q 448 952 381 981 q 556 868 515 923 q 597 739 597 813 q 592 683 597 723 q 540 578 581 623 q 440 511 499 534 q 319 489 381 489 q 180 518 247 489 q 72 604 113 547 q 31 736 31 660 m 214 736 q 237 627 214 676 q 311 578 259 578 q 318 579 313 578 q 325 581 323 581 q 414 736 414 590 q 325 889 414 880 l 314 889 q 237 841 260 889 q 214 736 214 794 z "},"»":{"ha":744,"x_min":72,"x_max":667,"o":"m 500 125 l 345 125 l 514 339 l 345 555 l 500 555 l 667 339 l 500 125 m 222 125 l 72 125 l 239 339 l 72 555 l 222 555 l 394 339 l 222 125 z "},"¼":{"ha":1308,"x_min":92,"x_max":1278,"o":"m 428 425 l 108 425 l 108 464 q 176 481 152 469 q 200 525 200 494 l 200 850 q 92 825 159 834 l 92 886 q 180 912 145 895 q 244 964 215 930 l 350 964 l 350 525 q 366 482 350 491 q 428 464 382 472 l 428 425 m 431 -17 l 303 -17 l 869 981 l 995 981 l 431 -17 m 1011 0 l 1011 42 q 1042 56 1035 42 q 1044 83 1044 61 l 1044 128 l 778 128 l 778 208 l 1081 539 l 1189 539 l 1189 211 l 1278 211 l 1278 128 l 1189 128 q 1187 114 1189 125 q 1186 97 1186 103 q 1195 56 1186 71 q 1228 42 1201 42 l 1228 0 l 1011 0 m 1053 205 l 1061 419 l 878 205 l 1053 205 z "},"½":{"ha":1308,"x_min":92,"x_max":1244,"o":"m 428 425 l 108 425 l 108 464 q 176 481 152 469 q 200 525 200 494 l 200 850 q 92 825 159 834 l 92 886 q 180 912 145 895 q 244 964 215 930 l 350 964 l 350 525 q 366 482 350 491 q 428 464 382 472 l 428 425 m 431 -17 l 303 -17 l 869 981 l 995 981 l 431 -17 m 1244 0 l 783 0 q 824 129 783 78 q 950 234 865 180 q 1063 312 1034 289 q 1092 378 1092 336 l 1092 392 q 1055 446 1086 426 q 983 467 1025 467 q 903 445 931 467 q 861 378 874 424 l 797 378 l 797 500 q 1011 547 896 547 l 1056 547 q 1151 520 1108 542 q 1219 463 1194 499 q 1244 380 1244 428 q 1147 233 1244 286 q 1071 194 1129 223 q 976 143 1013 165 q 908 95 939 121 l 1119 95 q 1172 103 1156 95 q 1195 142 1189 112 l 1244 142 l 1244 0 z "},"¾":{"ha":1308,"x_min":25,"x_max":1278,"o":"m 356 733 q 439 694 408 717 q 480 631 469 672 q 483 597 483 622 q 433 486 483 536 q 197 414 350 414 q 25 433 145 414 l 25 550 l 83 550 q 183 494 103 494 q 253 506 219 494 q 306 539 287 518 q 325 597 325 563 q 308 653 325 632 q 178 689 275 689 l 142 689 l 142 767 q 164 765 148 767 q 189 764 180 764 q 289 794 258 764 q 303 830 303 808 q 286 875 303 859 q 186 897 261 897 q 103 844 129 889 l 44 844 l 44 933 q 233 972 147 972 q 419 920 356 972 q 445 881 434 905 q 455 836 455 857 q 445 794 455 813 q 356 733 425 758 m 431 -17 l 303 -17 l 869 981 l 995 981 l 431 -17 m 1011 0 l 1011 42 q 1042 56 1035 42 q 1044 83 1044 61 l 1044 128 l 778 128 l 778 208 l 1081 539 l 1189 539 l 1189 211 l 1278 211 l 1278 128 l 1189 128 q 1187 114 1189 125 q 1186 97 1186 103 q 1195 56 1186 71 q 1228 42 1201 42 l 1228 0 l 1011 0 m 1053 205 l 1061 419 l 878 205 l 1053 205 z "},"¿":{"ha":853,"x_min":78,"x_max":769,"o":"m 631 872 q 590 780 631 815 q 500 744 550 744 q 425 770 458 744 q 380 844 391 797 q 379 858 380 849 q 378 869 378 867 q 415 959 378 920 q 503 997 453 997 q 593 960 555 997 q 631 872 631 923 m 436 692 l 572 692 l 572 450 l 511 450 q 356 392 394 450 q 328 308 328 355 q 364 208 328 260 q 429 155 388 174 q 514 136 470 136 q 528 137 518 136 q 545 139 538 139 q 675 267 641 154 l 769 267 l 769 22 q 511 -14 630 -14 q 400 -8 439 -14 q 206 73 290 9 q 92 239 122 137 q 78 331 78 310 q 99 447 78 389 q 158 545 120 506 q 400 617 234 617 l 436 617 l 436 692 z "},"À":{"ha":944,"x_min":-47,"x_max":972,"o":"m 317 472 l 531 472 l 422 781 l 317 472 m 247 0 l -47 0 l -47 75 q 22 144 2 90 l 336 972 l 592 972 l 908 136 q 972 75 924 93 l 972 0 l 606 0 l 606 75 q 642 92 630 85 q 653 114 653 99 l 653 131 l 581 328 l 267 328 l 203 133 q 200 123 203 131 q 197 114 197 115 q 213 88 197 98 q 247 75 228 77 l 247 0 m 611 1069 l 536 1069 l 314 1181 q 262 1216 284 1193 q 239 1264 239 1239 q 261 1311 239 1289 q 311 1333 283 1333 q 425 1270 361 1333 l 611 1069 z "},"Á":{"ha":944,"x_min":-47,"x_max":972,"o":"m 317 472 l 531 472 l 422 781 l 317 472 m 247 0 l -47 0 l -47 75 q 22 144 2 90 l 336 972 l 592 972 l 908 136 q 972 75 924 93 l 972 0 l 606 0 l 606 75 q 642 92 630 85 q 653 114 653 99 l 653 131 l 581 328 l 267 328 l 203 133 q 200 123 203 131 q 197 114 197 115 q 213 88 197 98 q 247 75 228 77 l 247 0 m 322 1069 l 511 1270 q 620 1333 569 1333 q 672 1311 654 1333 q 692 1264 692 1292 q 671 1216 692 1239 q 622 1181 650 1193 l 400 1069 l 322 1069 z "},"Â":{"ha":944,"x_min":-47,"x_max":972,"o":"m 317 472 l 531 472 l 422 781 l 317 472 m 247 0 l -47 0 l -47 75 q 22 144 2 90 l 336 972 l 592 972 l 908 136 q 972 75 924 93 l 972 0 l 606 0 l 606 75 q 642 92 630 85 q 653 114 653 99 l 653 131 l 581 328 l 267 328 l 203 133 q 200 123 203 131 q 197 114 197 115 q 213 88 197 98 q 247 75 228 77 l 247 0 m 250 1069 l 406 1319 l 531 1319 l 683 1069 l 617 1069 l 467 1183 l 319 1069 l 250 1069 z "},"Ã":{"ha":944,"x_min":-47,"x_max":972,"o":"m 317 472 l 531 472 l 422 781 l 317 472 m 247 0 l -47 0 l -47 75 q 22 144 2 90 l 336 972 l 592 972 l 908 136 q 972 75 924 93 l 972 0 l 606 0 l 606 75 q 642 92 630 85 q 653 114 653 99 l 653 131 l 581 328 l 267 328 l 203 133 q 200 123 203 131 q 197 114 197 115 q 213 88 197 98 q 247 75 228 77 l 247 0 m 303 1089 l 244 1089 q 279 1194 259 1153 q 342 1256 299 1235 q 400 1267 368 1267 q 497 1250 436 1267 q 530 1242 507 1248 q 564 1236 552 1236 q 633 1297 614 1236 l 686 1297 q 533 1117 647 1117 q 447 1133 506 1117 q 367 1150 389 1150 q 303 1089 314 1150 z "},"Ä":{"ha":944,"x_min":-47,"x_max":972,"o":"m 317 472 l 531 472 l 422 781 l 317 472 m 247 0 l -47 0 l -47 75 q 22 144 2 90 l 336 972 l 592 972 l 908 136 q 972 75 924 93 l 972 0 l 606 0 l 606 75 q 642 92 630 85 q 653 114 653 99 l 653 131 l 581 328 l 267 328 l 203 133 q 200 123 203 131 q 197 114 197 115 q 213 88 197 98 q 247 75 228 77 l 247 0 m 236 1195 q 267 1263 236 1238 q 336 1289 297 1289 q 404 1263 374 1289 q 433 1195 433 1238 q 402 1123 433 1149 q 333 1097 372 1097 q 266 1124 296 1097 q 236 1192 236 1150 l 236 1195 m 503 1195 q 531 1263 503 1238 q 597 1289 559 1289 q 665 1263 636 1289 q 694 1195 694 1238 q 665 1123 694 1149 q 597 1097 636 1097 q 532 1124 562 1097 q 503 1192 503 1151 l 503 1195 z "},"Å":{"ha":944,"x_min":-47,"x_max":972,"o":"m 317 472 l 531 472 l 422 781 l 317 472 m 247 0 l -47 0 l -47 75 q 22 144 2 90 l 336 972 l 592 972 l 908 136 q 972 75 924 93 l 972 0 l 606 0 l 606 75 q 642 92 630 85 q 653 114 653 99 l 653 131 l 581 328 l 267 328 l 203 133 q 200 123 203 131 q 197 114 197 115 q 213 88 197 98 q 247 75 228 77 l 247 0 m 303 1175 q 352 1290 303 1241 q 467 1339 401 1339 q 483 1338 473 1339 q 497 1336 493 1336 q 564 1304 533 1328 q 611 1246 594 1280 q 628 1175 628 1212 q 626 1158 628 1169 q 625 1142 625 1147 q 568 1046 613 1081 q 467 1011 522 1011 q 388 1031 426 1011 q 326 1088 350 1050 q 303 1175 303 1125 m 389 1175 q 413 1121 389 1142 q 467 1100 438 1100 q 512 1115 491 1100 q 539 1158 533 1131 l 539 1172 q 514 1223 539 1203 q 458 1242 488 1242 q 409 1224 429 1242 q 389 1175 389 1206 z "},"Æ":{"ha":1506,"x_min":-78,"x_max":1453,"o":"m -78 0 l -78 75 q -30 104 -48 85 q 8 156 -12 122 l 561 972 l 1417 972 l 1417 747 l 1347 747 q 1298 818 1333 802 q 1203 833 1264 833 l 897 833 l 897 614 l 1153 614 q 1220 626 1199 614 q 1250 675 1242 638 l 1325 675 l 1325 411 l 1250 411 q 1219 466 1244 452 q 1144 480 1195 480 l 897 480 l 897 142 l 1233 142 q 1308 147 1281 142 q 1352 173 1335 153 q 1378 233 1370 193 l 1453 233 l 1453 0 l 586 0 l 586 75 q 634 93 623 82 q 645 139 645 103 l 647 328 l 308 328 l 180 133 q 170 105 170 117 q 217 75 170 87 l 217 0 l -78 0 m 647 472 l 653 833 l 628 833 l 397 472 l 647 472 z "},"Ç":{"ha":1095,"x_min":42,"x_max":1047,"o":"m 1008 -5 q 783 -25 906 -25 q 617 -17 694 -25 q 387 41 492 0 q 203 158 283 82 q 115 261 152 204 q 61 382 79 318 q 42 514 42 447 q 102 745 42 642 q 267 912 163 848 q 497 995 371 976 q 600 1000 564 1000 q 811 967 710 1000 q 1047 817 941 924 l 844 617 l 783 655 q 792 711 792 684 q 760 793 792 758 q 672 842 729 828 q 592 850 636 850 q 467 821 526 850 q 370 739 409 792 q 319 617 331 686 q 316 586 317 598 q 313 559 314 574 q 311 536 311 544 q 347 371 311 450 q 447 234 382 291 q 597 153 511 176 q 708 136 670 136 q 808 150 756 136 q 930 244 875 170 l 1008 244 l 1008 -5 m 403 -256 l 436 -189 q 479 -209 450 -195 q 537 -233 509 -223 q 589 -242 566 -242 q 647 -217 626 -242 q 655 -189 655 -209 q 648 -162 655 -176 q 631 -142 641 -148 q 592 -131 609 -131 q 550 -139 581 -131 l 550 0 l 611 0 l 611 -81 q 634 -78 618 -81 q 659 -75 650 -75 q 764 -122 728 -75 q 781 -186 781 -147 q 758 -264 781 -228 q 633 -319 718 -319 q 403 -256 553 -319 z "},"È":{"ha":944,"x_min":44,"x_max":908,"o":"m 44 0 l 44 75 q 79 85 68 79 q 95 102 91 90 q 100 139 100 114 l 100 833 q 90 882 100 870 q 44 897 79 893 l 44 972 l 878 972 l 878 747 l 803 747 q 757 818 790 802 q 664 833 724 833 l 356 833 l 356 614 l 614 614 q 678 626 657 614 q 711 675 700 638 l 783 675 l 783 411 l 711 411 q 678 466 702 452 q 606 480 655 480 l 356 480 l 356 142 l 689 142 q 793 159 761 142 q 836 233 825 175 l 908 233 l 908 0 l 44 0 m 631 1069 l 553 1069 l 331 1181 q 280 1216 302 1193 q 258 1264 258 1239 q 280 1311 258 1289 q 331 1333 299 1333 q 389 1314 358 1333 q 442 1270 419 1294 l 631 1069 z "},"É":{"ha":944,"x_min":44,"x_max":908,"o":"m 44 0 l 44 75 q 79 85 68 79 q 95 102 91 90 q 100 139 100 114 l 100 833 q 90 882 100 870 q 44 897 79 893 l 44 972 l 878 972 l 878 747 l 803 747 q 757 818 790 802 q 664 833 724 833 l 356 833 l 356 614 l 614 614 q 678 626 657 614 q 711 675 700 638 l 783 675 l 783 411 l 711 411 q 678 466 702 452 q 606 480 655 480 l 356 480 l 356 142 l 689 142 q 793 159 761 142 q 836 233 825 175 l 908 233 l 908 0 l 44 0 m 342 1069 l 531 1270 q 583 1314 553 1295 q 639 1333 612 1333 q 692 1311 673 1333 q 711 1264 711 1292 q 690 1215 711 1238 q 642 1181 670 1193 l 419 1069 l 342 1069 z "},"Ê":{"ha":944,"x_min":44,"x_max":908,"o":"m 44 0 l 44 75 q 79 85 68 79 q 95 102 91 90 q 100 139 100 114 l 100 833 q 90 882 100 870 q 44 897 79 893 l 44 972 l 878 972 l 878 747 l 803 747 q 757 818 790 802 q 664 833 724 833 l 356 833 l 356 614 l 614 614 q 678 626 657 614 q 711 675 700 638 l 783 675 l 783 411 l 711 411 q 678 466 702 452 q 606 480 655 480 l 356 480 l 356 142 l 689 142 q 793 159 761 142 q 836 233 825 175 l 908 233 l 908 0 l 44 0 m 270 1069 l 425 1319 l 550 1319 l 703 1069 l 636 1069 l 486 1183 l 336 1069 l 270 1069 z "},"Ë":{"ha":944,"x_min":44,"x_max":908,"o":"m 44 0 l 44 75 q 79 85 68 79 q 95 102 91 90 q 100 139 100 114 l 100 833 q 90 882 100 870 q 44 897 79 893 l 44 972 l 878 972 l 878 747 l 803 747 q 757 818 790 802 q 664 833 724 833 l 356 833 l 356 614 l 614 614 q 678 626 657 614 q 711 675 700 638 l 783 675 l 783 411 l 711 411 q 678 466 702 452 q 606 480 655 480 l 356 480 l 356 142 l 689 142 q 793 159 761 142 q 836 233 825 175 l 908 233 l 908 0 l 44 0 m 256 1195 q 285 1263 256 1238 q 353 1289 314 1289 q 421 1263 391 1289 q 450 1195 450 1238 q 421 1123 450 1149 q 353 1097 391 1097 q 286 1124 317 1097 q 256 1192 256 1151 l 256 1195 m 522 1195 q 550 1263 522 1238 q 617 1289 578 1289 q 684 1263 655 1289 q 714 1195 714 1238 q 684 1123 714 1149 q 617 1097 655 1097 q 552 1124 581 1097 q 522 1192 522 1151 l 522 1195 z "},"Ì":{"ha":486,"x_min":14,"x_max":431,"o":"m 53 0 l 53 75 q 100 93 88 82 q 111 139 111 104 l 111 833 q 99 881 111 869 q 53 897 87 893 l 53 972 l 431 972 l 431 897 q 385 882 398 895 q 372 833 372 868 l 372 139 q 384 93 372 103 q 431 75 395 82 l 431 0 l 53 0 m 386 1069 l 311 1069 l 89 1181 q 37 1216 60 1193 q 14 1264 14 1239 q 36 1311 14 1289 q 86 1333 54 1333 q 200 1270 136 1333 l 386 1069 z "},"Í":{"ha":486,"x_min":53,"x_max":467,"o":"m 53 0 l 53 75 q 100 93 88 82 q 111 139 111 104 l 111 833 q 99 881 111 869 q 53 897 87 893 l 53 972 l 431 972 l 431 897 q 385 882 398 895 q 372 833 372 868 l 372 139 q 384 93 372 103 q 431 75 395 82 l 431 0 l 53 0 m 97 1069 l 286 1270 q 394 1333 344 1333 q 447 1311 429 1333 q 467 1264 467 1292 q 446 1215 467 1238 q 397 1181 425 1193 l 175 1069 l 97 1069 z "},"Î":{"ha":486,"x_min":25,"x_max":458,"o":"m 53 0 l 53 75 q 100 93 88 82 q 111 139 111 104 l 111 833 q 99 881 111 869 q 53 897 87 893 l 53 972 l 431 972 l 431 897 q 385 882 398 895 q 372 833 372 868 l 372 139 q 384 93 372 103 q 431 75 395 82 l 431 0 l 53 0 m 25 1069 l 180 1319 l 306 1319 l 458 1069 l 392 1069 l 242 1183 l 92 1069 l 25 1069 z "},"Ï":{"ha":486,"x_min":11,"x_max":469,"o":"m 53 0 l 53 75 q 100 93 88 82 q 111 139 111 104 l 111 833 q 99 881 111 869 q 53 897 87 893 l 53 972 l 431 972 l 431 897 q 385 882 398 895 q 372 833 372 868 l 372 139 q 384 93 372 103 q 431 75 395 82 l 431 0 l 53 0 m 11 1195 q 41 1263 11 1238 q 108 1289 70 1289 q 176 1263 147 1289 q 205 1195 205 1238 q 176 1123 205 1149 q 108 1097 147 1097 q 42 1124 72 1097 q 11 1192 11 1151 l 11 1195 m 278 1195 q 306 1263 278 1238 q 372 1289 334 1289 q 440 1263 411 1289 q 469 1195 469 1238 q 440 1123 469 1149 q 372 1097 411 1097 q 307 1124 337 1097 q 278 1192 278 1151 l 278 1195 z "},"Ð":{"ha":1142,"x_min":31,"x_max":1067,"o":"m 1067 70 l 1067 -5 q 957 -13 1034 -7 q 831 -20 880 -18 q 739 -22 782 -22 q 370 36 523 -22 q 123 220 216 95 q 31 500 31 344 q 33 529 31 508 q 36 558 36 550 q 90 732 47 654 q 201 866 133 809 q 355 955 269 922 q 533 995 440 987 q 568 996 544 995 q 603 997 592 997 q 759 978 687 997 q 897 920 831 959 q 1030 820 962 881 l 856 642 l 792 681 q 797 722 797 708 q 771 787 797 759 q 702 828 745 814 q 608 842 658 842 q 462 813 532 842 q 356 730 392 784 q 313 635 329 690 q 297 525 297 579 q 320 389 297 458 q 380 270 342 321 q 542 159 444 191 q 761 128 641 128 l 761 400 q 748 447 761 434 q 700 467 735 460 l 700 539 l 1067 539 l 1067 467 q 1020 448 1031 460 q 1008 400 1008 435 l 1008 133 q 1013 99 1008 111 q 1030 80 1018 86 q 1067 70 1042 74 m 345 1319 l 414 1319 l 561 1203 l 711 1319 l 781 1319 l 625 1069 l 500 1069 l 345 1319 z "},"Ñ":{"ha":1064,"x_min":44,"x_max":1017,"o":"m 44 0 l 44 75 q 79 85 68 79 q 95 102 91 90 q 100 139 100 114 l 100 833 q 90 882 100 870 q 44 897 79 893 l 44 972 l 394 972 l 792 583 l 792 833 q 781 882 792 870 q 733 897 770 893 l 733 972 l 1017 972 l 1017 897 q 983 889 995 895 q 966 871 971 884 q 961 833 961 858 l 961 139 q 972 93 961 103 q 1017 75 983 82 l 1017 0 l 733 0 l 733 75 q 786 95 778 81 q 792 158 792 105 l 792 239 l 270 747 l 270 139 q 281 93 270 103 q 328 75 292 82 l 328 0 l 44 0 m 380 1089 l 322 1089 q 357 1194 336 1153 q 422 1256 378 1236 q 478 1267 445 1267 q 575 1250 514 1267 q 613 1241 591 1247 q 645 1236 634 1236 q 711 1297 692 1236 l 767 1297 q 611 1117 724 1117 q 525 1133 583 1117 q 445 1150 466 1150 q 380 1089 395 1150 z "},"Ò":{"ha":1186,"x_min":47,"x_max":1133,"o":"m 47 486 q 92 707 47 610 q 215 868 137 803 q 389 965 292 932 q 589 997 485 997 q 790 965 692 997 q 964 868 887 932 q 1088 706 1042 803 q 1133 486 1133 609 q 1093 274 1133 368 q 978 113 1052 179 q 805 12 903 46 q 592 -22 706 -22 q 377 12 476 -22 q 203 113 278 46 q 88 274 129 179 q 47 486 47 370 m 314 486 q 343 312 314 393 q 434 181 372 231 q 589 131 496 131 q 744 179 681 131 q 839 306 808 227 q 869 475 869 385 l 869 486 q 848 638 869 564 q 778 766 826 712 q 655 836 730 820 q 586 842 611 842 q 437 792 499 842 q 345 661 375 743 q 314 486 314 579 m 744 1069 l 667 1069 l 445 1181 q 394 1216 416 1193 q 372 1264 372 1239 q 394 1311 372 1289 q 445 1333 413 1333 q 503 1313 472 1333 q 555 1270 535 1293 l 744 1069 z "},"Ó":{"ha":1186,"x_min":47,"x_max":1133,"o":"m 47 486 q 92 707 47 610 q 215 868 137 803 q 389 965 292 932 q 589 997 485 997 q 790 965 692 997 q 964 868 887 932 q 1088 706 1042 803 q 1133 486 1133 609 q 1093 274 1133 368 q 978 113 1052 179 q 805 12 903 46 q 592 -22 706 -22 q 377 12 476 -22 q 203 113 278 46 q 88 274 129 179 q 47 486 47 370 m 314 486 q 343 312 314 393 q 434 181 372 231 q 589 131 496 131 q 744 179 681 131 q 839 306 808 227 q 869 475 869 385 l 869 486 q 848 638 869 564 q 778 766 826 712 q 655 836 730 820 q 586 842 611 842 q 437 792 499 842 q 345 661 375 743 q 314 486 314 579 m 455 1069 l 645 1270 q 696 1314 667 1295 q 753 1333 726 1333 q 806 1311 787 1333 q 825 1264 825 1292 q 804 1215 825 1238 q 755 1181 784 1193 l 533 1069 l 455 1069 z "},"Ô":{"ha":1186,"x_min":47,"x_max":1133,"o":"m 47 486 q 92 707 47 610 q 215 868 137 803 q 389 965 292 932 q 589 997 485 997 q 790 965 692 997 q 964 868 887 932 q 1088 706 1042 803 q 1133 486 1133 609 q 1093 274 1133 368 q 978 113 1052 179 q 805 12 903 46 q 592 -22 706 -22 q 377 12 476 -22 q 203 113 278 46 q 88 274 129 179 q 47 486 47 370 m 314 486 q 343 312 314 393 q 434 181 372 231 q 589 131 496 131 q 744 179 681 131 q 839 306 808 227 q 869 475 869 385 l 869 486 q 848 638 869 564 q 778 766 826 712 q 655 836 730 820 q 586 842 611 842 q 437 792 499 842 q 345 661 375 743 q 314 486 314 579 m 383 1069 l 539 1319 l 664 1319 l 817 1069 l 750 1069 l 600 1183 l 450 1069 l 383 1069 z "},"Õ":{"ha":1186,"x_min":47,"x_max":1133,"o":"m 47 486 q 92 707 47 610 q 215 868 137 803 q 389 965 292 932 q 589 997 485 997 q 790 965 692 997 q 964 868 887 932 q 1088 706 1042 803 q 1133 486 1133 609 q 1093 274 1133 368 q 978 113 1052 179 q 805 12 903 46 q 592 -22 706 -22 q 377 12 476 -22 q 203 113 278 46 q 88 274 129 179 q 47 486 47 370 m 314 486 q 343 312 314 393 q 434 181 372 231 q 589 131 496 131 q 744 179 681 131 q 839 306 808 227 q 869 475 869 385 l 869 486 q 848 638 869 564 q 778 766 826 712 q 655 836 730 820 q 586 842 611 842 q 437 792 499 842 q 345 661 375 743 q 314 486 314 579 m 436 1089 l 378 1089 q 412 1194 392 1153 q 475 1256 432 1235 q 533 1267 502 1267 q 631 1250 569 1267 q 662 1242 639 1248 q 697 1236 686 1236 q 767 1297 747 1236 l 820 1297 q 667 1117 781 1117 q 580 1133 639 1117 q 500 1150 522 1150 q 436 1089 447 1150 z "},"Ö":{"ha":1186,"x_min":47,"x_max":1133,"o":"m 47 486 q 92 707 47 610 q 215 868 137 803 q 389 965 292 932 q 589 997 485 997 q 790 965 692 997 q 964 868 887 932 q 1088 706 1042 803 q 1133 486 1133 609 q 1093 274 1133 368 q 978 113 1052 179 q 805 12 903 46 q 592 -22 706 -22 q 377 12 476 -22 q 203 113 278 46 q 88 274 129 179 q 47 486 47 370 m 314 486 q 343 312 314 393 q 434 181 372 231 q 589 131 496 131 q 744 179 681 131 q 839 306 808 227 q 869 475 869 385 l 869 486 q 848 638 869 564 q 778 766 826 712 q 655 836 730 820 q 586 842 611 842 q 437 792 499 842 q 345 661 375 743 q 314 486 314 579 m 370 1195 q 399 1263 370 1238 q 467 1289 428 1289 q 535 1263 505 1289 q 564 1195 564 1238 q 535 1123 564 1149 q 467 1097 505 1097 q 400 1124 431 1097 q 370 1192 370 1151 l 370 1195 m 636 1195 q 664 1263 636 1238 q 730 1289 692 1289 q 798 1263 769 1289 q 828 1195 828 1238 q 798 1123 828 1149 q 730 1097 769 1097 q 665 1124 695 1097 q 636 1192 636 1151 l 636 1195 z "},"×":{"ha":836,"x_min":0,"x_max":0,"o":""},"Ø":{"ha":1186,"x_min":22,"x_max":1144,"o":"m 22 -22 l 175 142 q 64 358 91 243 q 44 492 44 433 q 69 646 44 569 q 136 783 93 724 q 244 892 181 847 q 381 963 307 938 q 533 995 455 989 l 592 995 q 900 911 742 995 l 978 997 l 1144 997 l 1000 836 q 1131 533 1120 689 l 1131 483 q 1089 277 1131 376 q 972 108 1048 178 q 863 34 924 64 q 736 -11 803 4 q 603 -25 670 -25 q 433 -2 519 -25 q 272 64 348 21 l 194 -22 l 22 -22 m 775 772 q 583 842 692 842 q 442 800 509 842 q 337 672 371 752 q 303 497 303 591 q 333 308 303 410 l 775 772 m 403 203 q 493 148 442 168 q 594 128 544 128 q 755 183 687 128 q 844 305 815 231 q 872 467 872 379 q 839 672 872 567 l 403 203 z "},"Ù":{"ha":1081,"x_min":47,"x_max":1033,"o":"m 1033 0 l 645 0 q 434 12 519 0 q 267 70 348 24 q 183 128 222 92 q 116 207 144 163 q 72 300 88 251 q 47 447 47 385 q 114 700 47 575 q 164 780 118 707 q 211 864 210 853 l 211 867 q 194 890 211 884 q 156 897 176 897 l 156 972 l 536 972 l 536 897 q 383 739 441 842 q 311 442 316 612 q 428 192 311 259 q 650 144 509 144 q 686 146 661 144 q 722 147 711 147 l 722 833 q 717 871 722 858 q 700 889 712 884 q 667 897 688 895 l 667 972 l 1033 972 l 1033 897 q 990 882 1003 895 q 978 833 978 868 l 978 139 q 989 93 978 103 q 1033 75 999 82 l 1033 0 m 753 1069 l 675 1069 l 453 1181 q 402 1216 424 1193 q 380 1264 380 1239 q 403 1311 380 1289 q 453 1333 421 1333 q 511 1314 480 1333 q 564 1270 542 1294 l 753 1069 z "},"Ú":{"ha":1081,"x_min":47,"x_max":1033,"o":"m 1033 0 l 645 0 q 434 12 519 0 q 267 70 348 24 q 183 128 222 92 q 116 207 144 163 q 72 300 88 251 q 47 447 47 385 q 114 700 47 575 q 164 780 118 707 q 211 864 210 853 l 211 867 q 194 890 211 884 q 156 897 176 897 l 156 972 l 536 972 l 536 897 q 383 739 441 842 q 311 442 316 612 q 428 192 311 259 q 650 144 509 144 q 686 146 661 144 q 722 147 711 147 l 722 833 q 717 871 722 858 q 700 889 712 884 q 667 897 688 895 l 667 972 l 1033 972 l 1033 897 q 990 882 1003 895 q 978 833 978 868 l 978 139 q 989 93 978 103 q 1033 75 999 82 l 1033 0 m 464 1069 l 653 1270 q 761 1333 710 1333 q 814 1311 795 1333 q 833 1264 833 1292 q 813 1216 833 1239 q 764 1181 792 1193 l 542 1069 l 464 1069 z "},"Û":{"ha":1081,"x_min":47,"x_max":1033,"o":"m 1033 0 l 645 0 q 434 12 519 0 q 267 70 348 24 q 183 128 222 92 q 116 207 144 163 q 72 300 88 251 q 47 447 47 385 q 114 700 47 575 q 164 780 118 707 q 211 864 210 853 l 211 867 q 194 890 211 884 q 156 897 176 897 l 156 972 l 536 972 l 536 897 q 383 739 441 842 q 311 442 316 612 q 428 192 311 259 q 650 144 509 144 q 686 146 661 144 q 722 147 711 147 l 722 833 q 717 871 722 858 q 700 889 712 884 q 667 897 688 895 l 667 972 l 1033 972 l 1033 897 q 990 882 1003 895 q 978 833 978 868 l 978 139 q 989 93 978 103 q 1033 75 999 82 l 1033 0 m 392 1069 l 547 1319 l 669 1319 l 825 1069 l 758 1069 l 608 1183 l 458 1069 l 392 1069 z "},"Ü":{"ha":1081,"x_min":47,"x_max":1033,"o":"m 1033 0 l 645 0 q 434 12 519 0 q 267 70 348 24 q 183 128 222 92 q 116 207 144 163 q 72 300 88 251 q 47 447 47 385 q 114 700 47 575 q 164 780 118 707 q 211 864 210 853 l 211 867 q 194 890 211 884 q 156 897 176 897 l 156 972 l 536 972 l 536 897 q 383 739 441 842 q 311 442 316 612 q 428 192 311 259 q 650 144 509 144 q 686 146 661 144 q 722 147 711 147 l 722 833 q 717 871 722 858 q 700 889 712 884 q 667 897 688 895 l 667 972 l 1033 972 l 1033 897 q 990 882 1003 895 q 978 833 978 868 l 978 139 q 989 93 978 103 q 1033 75 999 82 l 1033 0 m 378 1195 q 407 1263 378 1238 q 475 1289 437 1289 q 543 1263 513 1289 q 572 1195 572 1238 q 543 1123 572 1149 q 475 1097 513 1097 q 409 1124 439 1097 q 378 1192 378 1151 l 378 1195 m 645 1195 q 673 1263 645 1238 q 739 1289 701 1289 q 807 1263 777 1289 q 836 1195 836 1238 q 807 1123 836 1149 q 739 1097 777 1097 q 674 1124 703 1097 q 645 1192 645 1151 l 645 1195 z "},"Ý":{"ha":486,"x_min":53,"x_max":431,"o":"m 53 0 l 53 75 q 100 93 88 82 q 111 139 111 104 l 111 833 q 99 881 111 869 q 53 897 87 893 l 53 972 l 431 972 l 431 897 q 385 882 398 895 q 372 833 372 868 l 372 139 q 384 93 372 103 q 431 75 395 82 l 431 0 l 53 0 m 136 1197 q 151 1252 136 1229 q 191 1288 167 1276 q 242 1300 216 1300 q 315 1272 282 1300 q 347 1195 347 1243 q 316 1118 347 1147 q 244 1089 284 1089 q 169 1119 202 1089 q 136 1197 136 1150 z "},"Þ":{"ha":1003,"x_min":8,"x_max":942,"o":"m 8 217 l 225 372 l 289 314 q 258 233 258 270 q 328 142 258 173 q 486 111 397 111 q 589 125 529 111 q 665 168 633 137 q 697 239 697 199 q 689 283 697 262 q 635 339 674 321 q 531 372 595 357 l 345 422 q 182 485 249 446 q 89 597 116 524 q 70 692 70 650 q 105 822 70 759 q 200 922 140 885 q 464 997 307 997 q 600 983 532 997 q 906 803 755 948 l 739 647 l 667 689 q 668 707 667 694 q 669 725 669 719 q 614 830 669 795 q 475 864 552 864 q 408 856 437 864 q 339 817 369 847 q 308 750 308 786 q 311 740 308 747 q 314 728 314 733 q 334 692 319 706 q 367 670 348 678 q 409 657 386 663 q 453 647 432 652 l 617 603 q 753 561 695 584 q 858 497 810 538 q 928 394 906 456 q 942 306 942 349 q 902 159 942 229 q 797 47 863 90 q 492 -25 679 -25 q 358 -17 420 -25 q 216 24 277 -6 q 107 100 155 54 q 8 217 59 146 m 292 -256 l 322 -189 q 365 -209 333 -194 q 425 -233 396 -223 q 478 -242 455 -242 q 536 -217 515 -242 q 542 -189 542 -206 q 519 -142 542 -155 q 480 -131 498 -131 q 436 -139 475 -131 l 436 0 l 500 0 l 500 -81 q 523 -78 507 -81 q 547 -75 538 -75 q 653 -122 617 -75 q 669 -186 669 -147 q 647 -264 669 -229 q 522 -319 607 -319 q 292 -256 442 -319 z "},"ß":{"ha":928,"x_min":-172,"x_max":875,"o":"m -172 -156 l -144 -58 q -72 -64 -94 -64 q 57 -15 15 -64 q 100 139 100 33 l 100 572 l 5 572 l 33 672 l 105 672 q 278 950 123 865 q 480 997 372 997 q 661 967 578 997 q 767 892 723 945 q 811 775 811 838 q 810 757 811 769 q 808 739 808 744 q 672 581 792 653 q 650 558 650 567 q 693 533 650 551 q 774 493 737 515 q 843 419 812 470 q 875 289 875 369 q 814 108 875 183 q 650 5 752 34 q 478 -17 576 -17 q 347 5 437 -17 l 367 122 q 455 108 438 108 q 567 136 511 108 q 626 192 605 154 q 647 275 647 231 q 631 350 647 316 q 577 413 611 389 q 482 464 543 437 q 408 497 421 490 q 375 542 375 512 q 384 570 375 554 q 403 594 392 586 q 469 635 419 608 q 547 685 519 662 q 583 742 576 709 q 585 755 583 746 q 586 769 586 764 q 571 829 586 801 q 528 867 555 857 q 480 872 514 872 q 433 865 457 872 q 389 844 409 858 q 358 814 370 830 q 331 743 336 783 q 325 645 325 703 l 325 158 q 300 10 325 74 q 231 -97 275 -54 q 126 -162 186 -140 q -3 -183 67 -183 q -172 -156 -92 -183 z "},"à":{"ha":792,"x_min":28,"x_max":739,"o":"m 464 189 l 464 350 q 308 288 360 331 q 256 200 256 245 q 280 147 256 169 q 339 125 304 125 q 464 189 404 125 m 480 0 l 480 53 q 372 1 422 18 q 264 -17 321 -17 q 119 25 183 -17 q 36 144 56 66 q 28 197 28 194 q 99 339 28 284 q 251 417 170 393 q 464 467 333 440 l 464 472 q 434 549 464 527 q 342 572 405 572 q 236 550 282 572 q 172 475 190 527 l 78 475 l 78 631 q 378 686 239 686 q 464 683 436 686 q 661 589 607 667 q 689 431 689 539 l 689 125 q 700 87 689 97 q 739 72 710 77 l 739 0 l 480 0 m 539 764 l 461 764 l 239 875 q 189 910 211 887 q 167 958 167 933 q 189 1006 167 984 q 239 1028 207 1028 q 297 1008 266 1028 q 350 964 328 989 l 539 764 z "},"á":{"ha":792,"x_min":28,"x_max":739,"o":"m 464 189 l 464 350 q 308 288 360 331 q 256 200 256 245 q 280 147 256 169 q 339 125 304 125 q 464 189 404 125 m 480 0 l 480 53 q 372 1 422 18 q 264 -17 321 -17 q 119 25 183 -17 q 36 144 56 66 q 28 197 28 194 q 99 339 28 284 q 251 417 170 393 q 464 467 333 440 l 464 472 q 434 549 464 527 q 342 572 405 572 q 236 550 282 572 q 172 475 190 527 l 78 475 l 78 631 q 378 686 239 686 q 464 683 436 686 q 661 589 607 667 q 689 431 689 539 l 689 125 q 700 87 689 97 q 739 72 710 77 l 739 0 l 480 0 m 250 764 l 436 964 q 547 1028 500 1028 q 600 1006 582 1028 q 620 958 620 986 q 598 910 620 933 q 550 875 577 887 l 325 764 l 250 764 z "},"â":{"ha":792,"x_min":28,"x_max":739,"o":"m 464 189 l 464 350 q 308 288 360 331 q 256 200 256 245 q 280 147 256 169 q 339 125 304 125 q 464 189 404 125 m 480 0 l 480 53 q 372 1 422 18 q 264 -17 321 -17 q 119 25 183 -17 q 36 144 56 66 q 28 197 28 194 q 99 339 28 284 q 251 417 170 393 q 464 467 333 440 l 464 472 q 434 549 464 527 q 342 572 405 572 q 236 550 282 572 q 172 475 190 527 l 78 475 l 78 631 q 378 686 239 686 q 464 683 436 686 q 661 589 607 667 q 689 431 689 539 l 689 125 q 700 87 689 97 q 739 72 710 77 l 739 0 l 480 0 m 178 764 l 331 1014 l 455 1014 l 611 764 l 545 764 l 394 878 l 244 764 l 178 764 z "},"ã":{"ha":792,"x_min":28,"x_max":739,"o":"m 464 189 l 464 350 q 308 288 360 331 q 256 200 256 245 q 280 147 256 169 q 339 125 304 125 q 464 189 404 125 m 480 0 l 480 53 q 372 1 422 18 q 264 -17 321 -17 q 119 25 183 -17 q 36 144 56 66 q 28 197 28 194 q 99 339 28 284 q 251 417 170 393 q 464 467 333 440 l 464 472 q 434 549 464 527 q 342 572 405 572 q 236 550 282 572 q 172 475 190 527 l 78 475 l 78 631 q 378 686 239 686 q 464 683 436 686 q 661 589 607 667 q 689 431 689 539 l 689 125 q 700 87 689 97 q 739 72 710 77 l 739 0 l 480 0 m 228 783 l 172 783 q 206 888 186 848 q 270 950 225 928 q 325 961 292 961 q 425 944 365 961 q 460 935 436 942 q 494 928 483 928 q 558 992 540 928 l 614 992 q 461 811 575 811 q 374 828 433 811 q 292 844 314 844 q 228 783 242 844 z "},"ä":{"ha":792,"x_min":28,"x_max":739,"o":"m 464 189 l 464 350 q 308 288 360 331 q 256 200 256 245 q 280 147 256 169 q 339 125 304 125 q 464 189 404 125 m 480 0 l 480 53 q 372 1 422 18 q 264 -17 321 -17 q 119 25 183 -17 q 36 144 56 66 q 28 197 28 194 q 99 339 28 284 q 251 417 170 393 q 464 467 333 440 l 464 472 q 434 549 464 527 q 342 572 405 572 q 236 550 282 572 q 172 475 190 527 l 78 475 l 78 631 q 378 686 239 686 q 464 683 436 686 q 661 589 607 667 q 689 431 689 539 l 689 125 q 700 87 689 97 q 739 72 710 77 l 739 0 l 480 0 m 164 889 q 193 956 164 932 q 261 981 222 981 q 329 956 300 981 q 358 889 358 932 q 329 818 358 844 q 261 792 299 792 q 195 818 225 792 q 164 886 164 845 l 164 889 m 431 889 q 458 956 431 932 q 525 981 486 981 q 593 956 564 981 q 622 889 622 932 q 593 818 622 844 q 525 792 564 792 q 460 818 489 792 q 431 886 431 845 l 431 889 z "},"å":{"ha":792,"x_min":28,"x_max":739,"o":"m 480 0 l 480 53 q 372 1 422 18 q 264 -17 321 -17 q 119 25 183 -17 q 36 144 56 66 q 28 197 28 194 q 99 339 28 284 q 251 417 170 393 q 464 467 333 440 l 464 472 q 434 549 464 527 q 342 572 405 572 q 236 550 282 572 q 172 475 190 527 l 78 475 l 78 631 q 378 686 239 686 q 464 683 436 686 q 661 589 607 667 q 689 431 689 539 l 689 125 q 700 87 689 97 q 739 72 710 77 l 739 0 l 480 0 m 464 189 l 464 350 q 308 288 360 331 q 256 200 256 245 q 280 147 256 169 q 339 125 304 125 q 464 189 404 125 m 217 892 q 240 974 217 937 q 302 1034 264 1012 q 383 1056 340 1056 q 400 1054 387 1056 q 417 1053 412 1053 q 482 1019 453 1045 q 528 958 512 994 q 545 883 545 922 l 545 858 q 486 762 533 797 q 383 728 439 728 q 303 747 342 728 q 241 804 265 767 q 217 892 217 841 m 311 892 q 333 837 311 858 q 383 817 355 817 q 428 833 407 817 q 455 878 449 849 l 455 895 q 433 943 455 925 q 380 961 410 961 q 332 943 353 961 q 311 892 311 925 z "},"æ":{"ha":1231,"x_min":31,"x_max":1175,"o":"m 478 256 l 478 331 q 350 304 405 322 q 270 244 295 286 q 258 197 258 217 q 294 128 258 151 q 339 114 313 114 q 431 144 376 114 q 478 256 478 178 m 572 111 q 300 -14 450 -6 l 272 -14 q 142 12 201 -14 q 56 92 83 37 q 31 186 31 146 q 66 298 31 244 q 161 378 102 351 q 302 420 229 408 q 478 436 376 431 l 478 450 q 443 543 478 513 q 336 572 408 572 l 322 572 q 170 475 204 572 l 78 475 l 78 631 q 227 672 146 656 q 383 689 308 689 q 625 622 535 689 q 858 689 736 689 q 981 669 925 689 q 1098 597 1056 645 q 1155 488 1140 550 q 1172 339 1171 426 l 711 339 q 741 214 717 266 q 815 134 766 163 q 939 103 864 105 q 944 101 940 103 q 950 100 948 100 q 1056 127 1011 100 q 1111 208 1102 154 l 1175 208 l 1175 44 q 1037 0 1114 17 q 892 -17 961 -17 q 770 -3 829 -17 q 660 38 711 10 q 572 111 610 67 m 717 436 l 933 436 l 933 445 q 908 535 933 495 q 836 575 883 575 l 830 575 q 746 537 771 573 q 717 436 722 500 z "},"ç":{"ha":730,"x_min":36,"x_max":717,"o":"m 606 197 l 667 197 l 667 17 q 461 -14 566 -14 q 289 11 373 -14 q 158 91 216 38 q 68 214 99 144 q 36 361 36 284 q 37 377 36 366 q 39 394 39 389 q 78 523 45 467 q 161 614 110 578 q 278 668 212 650 q 414 686 343 686 l 428 686 q 717 578 596 686 l 603 428 l 550 455 q 555 489 555 478 q 529 547 555 523 q 461 572 503 570 l 442 572 q 325 512 364 572 q 286 367 286 452 q 285 358 286 366 q 283 350 283 351 q 313 219 283 274 q 387 134 342 163 q 480 105 433 105 q 557 130 522 105 q 606 197 592 154 m 205 -256 l 239 -189 q 283 -210 255 -197 q 340 -233 311 -223 q 392 -242 368 -242 q 450 -217 433 -242 q 458 -189 458 -208 q 436 -142 458 -155 q 397 -131 414 -131 q 353 -139 391 -131 l 353 0 l 417 0 l 417 -81 q 439 -78 424 -81 q 464 -75 455 -75 q 567 -122 535 -75 q 583 -186 583 -147 q 561 -264 583 -229 q 436 -319 524 -319 q 334 -303 386 -319 q 205 -256 282 -286 z "},"è":{"ha":775,"x_min":39,"x_max":725,"o":"m 272 445 l 483 445 q 459 536 483 496 q 389 575 435 575 l 386 575 q 272 445 295 575 m 725 44 q 447 -14 574 -14 q 294 8 375 -14 q 106 135 174 43 q 39 345 39 228 q 50 439 39 378 q 176 623 76 557 q 400 689 276 689 q 503 678 440 689 q 671 567 622 651 q 720 356 720 484 l 720 342 l 267 342 q 480 111 286 111 q 485 110 482 111 q 489 108 488 108 q 594 135 546 108 q 661 211 641 162 l 725 211 l 725 44 m 545 764 l 467 764 l 244 875 q 194 910 217 887 q 172 958 172 933 q 194 1006 172 984 q 244 1028 213 1028 q 302 1008 272 1028 q 356 964 333 989 l 545 764 z "},"é":{"ha":775,"x_min":39,"x_max":725,"o":"m 272 445 l 483 445 q 459 536 483 496 q 389 575 435 575 l 386 575 q 272 445 295 575 m 725 44 q 447 -14 574 -14 q 294 8 375 -14 q 106 135 174 43 q 39 345 39 228 q 50 439 39 378 q 176 623 76 557 q 400 689 276 689 q 503 678 440 689 q 671 567 622 651 q 720 356 720 484 l 720 342 l 267 342 q 480 111 286 111 q 485 110 482 111 q 489 108 488 108 q 594 135 546 108 q 661 211 641 162 l 725 211 l 725 44 m 256 764 l 442 964 q 553 1028 505 1028 q 606 1006 584 1028 q 625 958 625 986 q 603 910 625 933 q 553 875 581 887 l 331 764 l 256 764 z "},"ê":{"ha":775,"x_min":39,"x_max":725,"o":"m 272 445 l 483 445 q 459 536 483 496 q 389 575 435 575 l 386 575 q 272 445 295 575 m 725 44 q 447 -14 574 -14 q 294 8 375 -14 q 106 135 174 43 q 39 345 39 228 q 50 439 39 378 q 176 623 76 557 q 400 689 276 689 q 503 678 440 689 q 671 567 622 651 q 720 356 720 484 l 720 342 l 267 342 q 480 111 286 111 q 485 110 482 111 q 489 108 488 108 q 594 135 546 108 q 661 211 641 162 l 725 211 l 725 44 m 183 764 l 336 1014 l 461 1014 l 617 764 l 550 764 l 400 878 l 250 764 l 183 764 z "},"ë":{"ha":775,"x_min":39,"x_max":725,"o":"m 272 445 l 483 445 q 459 536 483 496 q 389 575 435 575 l 386 575 q 272 445 295 575 m 725 44 q 447 -14 574 -14 q 294 8 375 -14 q 106 135 174 43 q 39 345 39 228 q 50 439 39 378 q 176 623 76 557 q 400 689 276 689 q 503 678 440 689 q 671 567 622 651 q 720 356 720 484 l 720 342 l 267 342 q 480 111 286 111 q 485 110 482 111 q 489 108 488 108 q 594 135 546 108 q 661 211 641 162 l 725 211 l 725 44 m 170 889 q 199 956 170 932 q 267 981 228 981 q 335 956 306 981 q 364 889 364 932 q 335 818 364 844 q 267 792 305 792 q 200 818 231 792 q 170 886 170 845 l 170 889 m 436 889 q 464 956 436 932 q 531 981 492 981 q 599 956 570 981 q 628 889 628 932 q 598 818 628 844 q 531 792 569 792 q 466 818 495 792 q 436 886 436 845 l 436 889 z "},"ì":{"ha":428,"x_min":-22,"x_max":380,"o":"m 44 0 l 44 72 q 84 86 74 74 q 95 125 95 98 l 95 550 q 85 589 95 579 q 44 603 76 599 l 44 672 l 328 672 l 328 125 q 339 87 328 97 q 380 72 350 77 l 380 0 l 44 0 m 347 764 l 272 764 l 50 875 q 0 910 22 887 q -22 958 -22 933 q -3 1006 -22 986 q 47 1028 19 1028 q 161 964 97 1028 l 347 764 z "},"í":{"ha":428,"x_min":44,"x_max":428,"o":"m 44 0 l 44 72 q 84 86 74 74 q 95 125 95 98 l 95 550 q 85 589 95 579 q 44 603 76 599 l 44 672 l 328 672 l 328 125 q 339 87 328 97 q 380 72 350 77 l 380 0 l 44 0 m 61 764 l 247 964 q 358 1028 311 1028 q 411 1006 389 1028 q 428 958 428 985 q 407 910 428 933 q 358 875 386 887 l 136 764 l 61 764 z "},"î":{"ha":428,"x_min":-14,"x_max":422,"o":"m 44 0 l 44 72 q 84 86 74 74 q 95 125 95 98 l 95 550 q 85 589 95 579 q 44 603 76 599 l 44 672 l 328 672 l 328 125 q 339 87 328 97 q 380 72 350 77 l 380 0 l 44 0 m -14 764 l 142 1014 l 267 1014 l 422 764 l 353 764 l 203 878 l 56 764 l -14 764 z "},"ï":{"ha":428,"x_min":-28,"x_max":433,"o":"m 44 0 l 44 72 q 84 86 74 74 q 95 125 95 98 l 95 550 q 85 589 95 579 q 44 603 76 599 l 44 672 l 328 672 l 328 125 q 339 87 328 97 q 380 72 350 77 l 380 0 l 44 0 m -28 889 q 1 956 -28 932 q 70 981 31 981 q 139 956 109 981 q 170 889 170 932 q 139 818 170 844 q 70 792 108 792 q 4 818 33 792 q -25 886 -25 844 l -28 889 m 239 889 q 268 956 239 932 q 336 981 297 981 q 404 956 375 981 q 433 889 433 932 q 404 818 433 844 q 336 792 374 792 q 270 818 300 792 q 239 886 239 845 l 239 889 z "},"ð":{"ha":853,"x_min":22,"x_max":806,"o":"m 528 558 q 422 542 468 556 q 342 492 376 528 q 294 406 310 458 q 278 300 278 353 q 279 284 278 296 q 280 270 280 273 q 319 162 285 199 q 403 125 353 125 q 528 172 457 125 l 528 558 m 536 56 q 322 -3 420 -3 q 171 39 237 -3 q 71 150 106 81 q 36 297 36 218 q 87 475 36 390 q 244 615 138 561 q 506 669 350 669 l 511 672 l 806 672 l 806 603 q 769 588 780 598 q 758 550 758 578 l 758 103 q 773 30 758 78 q 789 -44 788 -18 q 740 -179 787 -122 q 617 -267 693 -236 q 380 -308 501 -308 q 261 -297 339 -308 q 22 -144 119 -267 l 186 -17 l 233 -64 q 228 -86 228 -75 q 264 -150 228 -127 q 370 -180 302 -180 q 445 -172 411 -180 q 507 -142 479 -164 q 551 -90 535 -120 q 567 -28 567 -60 q 536 56 567 16 m 203 1014 l 272 1014 l 422 897 l 569 1014 l 639 1014 l 483 764 l 358 764 l 203 1014 z "},"ñ":{"ha":853,"x_min":42,"x_max":814,"o":"m 42 0 l 42 72 q 80 86 71 76 q 89 125 89 96 l 89 550 q 80 589 89 579 q 42 603 71 599 l 42 672 l 308 672 l 308 611 q 517 686 409 686 l 558 686 q 719 606 673 674 q 764 419 764 537 l 764 125 q 775 88 764 99 q 814 72 786 77 l 814 0 l 480 0 l 480 72 q 522 87 511 77 q 533 125 533 97 l 533 425 q 509 519 533 488 q 447 550 486 550 q 322 486 391 550 l 322 125 q 333 87 322 99 q 372 72 345 76 l 372 0 l 42 0 m 272 783 l 214 783 q 249 887 228 846 q 314 950 269 928 q 370 961 336 961 q 467 944 407 961 q 503 935 480 942 q 536 928 525 928 q 603 992 584 928 l 659 992 q 503 811 616 811 q 417 828 475 811 q 336 844 358 844 q 272 783 287 844 z "},"ò":{"ha":853,"x_min":39,"x_max":794,"o":"m 42 336 l 39 336 q 70 486 39 420 q 154 596 100 552 q 273 662 207 640 q 411 683 340 683 q 551 661 483 683 q 675 595 620 638 q 762 486 730 551 q 794 342 794 422 q 789 264 794 319 q 742 144 777 196 q 656 56 707 92 q 545 4 606 21 q 422 -14 485 -14 q 239 27 327 -14 q 96 146 151 67 q 42 333 42 225 l 42 336 m 286 336 q 317 183 286 252 q 419 114 347 114 q 427 115 420 114 q 436 117 433 117 q 550 336 550 133 q 436 555 550 543 l 419 555 q 317 487 347 555 q 286 336 286 419 m 569 764 l 494 764 l 272 875 q 222 910 244 887 q 200 958 200 933 q 219 1006 200 982 q 270 1028 241 1028 q 383 964 320 1028 l 569 764 z "},"ó":{"ha":853,"x_min":39,"x_max":794,"o":"m 42 336 l 39 336 q 70 486 39 420 q 154 596 100 552 q 273 662 207 640 q 411 683 340 683 q 551 661 483 683 q 675 595 620 638 q 762 486 730 551 q 794 342 794 422 q 789 264 794 319 q 742 144 777 196 q 656 56 707 92 q 545 4 606 21 q 422 -14 485 -14 q 239 27 327 -14 q 96 146 151 67 q 42 333 42 225 l 42 336 m 286 336 q 317 183 286 252 q 419 114 347 114 q 427 115 420 114 q 436 117 433 117 q 550 336 550 133 q 436 555 550 543 l 419 555 q 317 487 347 555 q 286 336 286 419 m 283 764 l 469 964 q 581 1028 533 1028 q 633 1006 611 1028 q 650 958 650 985 q 629 910 650 933 q 581 875 608 887 l 358 764 l 283 764 z "},"ô":{"ha":853,"x_min":39,"x_max":794,"o":"m 42 336 l 39 336 q 70 486 39 420 q 154 596 100 552 q 273 662 207 640 q 411 683 340 683 q 551 661 483 683 q 675 595 620 638 q 762 486 730 551 q 794 342 794 422 q 789 264 794 319 q 742 144 777 196 q 656 56 707 92 q 545 4 606 21 q 422 -14 485 -14 q 239 27 327 -14 q 96 146 151 67 q 42 333 42 225 l 42 336 m 286 336 q 317 183 286 252 q 419 114 347 114 q 427 115 420 114 q 436 117 433 117 q 550 336 550 133 q 436 555 550 543 l 419 555 q 317 487 347 555 q 286 336 286 419 m 208 764 l 364 1014 l 489 1014 l 645 764 l 575 764 l 428 878 l 278 764 l 208 764 z "},"õ":{"ha":853,"x_min":39,"x_max":794,"o":"m 42 336 l 39 336 q 70 486 39 420 q 154 596 100 552 q 273 662 207 640 q 411 683 340 683 q 551 661 483 683 q 675 595 620 638 q 762 486 730 551 q 794 342 794 422 q 789 264 794 319 q 742 144 777 196 q 656 56 707 92 q 545 4 606 21 q 422 -14 485 -14 q 239 27 327 -14 q 96 146 151 67 q 42 333 42 225 l 42 336 m 286 336 q 317 183 286 252 q 419 114 347 114 q 427 115 420 114 q 436 117 433 117 q 550 336 550 133 q 436 555 550 543 l 419 555 q 317 487 347 555 q 286 336 286 419 m 261 783 l 203 783 q 237 887 217 846 q 303 950 258 928 q 358 961 325 961 q 455 944 396 961 q 492 935 469 942 q 525 928 514 928 q 592 992 573 928 l 647 992 q 492 811 605 811 q 405 828 464 811 q 325 844 347 844 q 261 783 276 844 z "},"ö":{"ha":853,"x_min":39,"x_max":794,"o":"m 42 336 l 39 336 q 70 486 39 420 q 154 596 100 552 q 273 662 207 640 q 411 683 340 683 q 551 661 483 683 q 675 595 620 638 q 762 486 730 551 q 794 342 794 422 q 789 264 794 319 q 742 144 777 196 q 656 56 707 92 q 545 4 606 21 q 422 -14 485 -14 q 239 27 327 -14 q 96 146 151 67 q 42 333 42 225 l 42 336 m 286 336 q 317 183 286 252 q 419 114 347 114 q 427 115 420 114 q 436 117 433 117 q 550 336 550 133 q 436 555 550 543 l 419 555 q 317 487 347 555 q 286 336 286 419 m 197 889 q 226 956 197 932 q 294 981 255 981 q 363 956 334 981 q 392 889 392 932 q 362 818 392 844 q 294 792 333 792 q 228 818 258 792 q 197 886 197 845 l 197 889 m 461 889 q 490 956 461 932 q 558 981 519 981 q 626 956 597 981 q 655 889 655 932 q 626 818 655 844 q 558 792 597 792 q 492 818 523 792 q 461 886 461 845 l 461 889 z "},"÷":{"ha":836,"x_min":0,"x_max":0,"o":""},"ø":{"ha":853,"x_min":11,"x_max":817,"o":"m 156 -25 l 11 -25 l 128 100 q 62 213 85 150 q 39 339 39 276 q 75 492 39 418 q 175 614 110 565 q 419 689 279 689 q 620 645 525 689 l 672 700 l 817 700 l 703 575 q 771 462 748 526 q 794 331 794 397 q 700 92 794 186 q 574 13 648 39 q 422 -14 500 -14 q 211 33 310 -14 l 156 -25 m 283 267 l 514 517 q 425 558 485 558 q 372 550 398 558 q 299 475 321 531 q 278 347 278 418 q 281 306 278 333 q 283 267 283 280 m 319 164 q 364 124 336 139 q 419 108 393 108 q 483 131 456 108 q 558 317 558 177 q 557 348 558 333 q 554 379 556 363 q 550 422 553 395 l 319 164 z "},"ù":{"ha":853,"x_min":33,"x_max":803,"o":"m 539 0 l 539 64 q 319 -14 440 -14 l 286 -14 q 128 67 173 -2 q 83 256 83 137 l 83 550 q 73 589 83 578 q 33 603 63 599 l 33 672 l 314 672 l 314 250 q 337 153 314 186 q 397 119 360 119 q 458 138 423 119 q 525 189 493 157 l 525 550 q 514 588 525 578 q 472 603 503 599 l 472 672 l 755 672 l 755 125 q 765 87 755 97 q 803 72 774 77 l 803 0 l 539 0 m 558 764 l 483 764 l 261 875 q 211 910 233 887 q 189 958 189 933 q 208 1006 189 981 q 258 1028 231 1028 q 372 964 309 1028 l 558 764 z "},"ú":{"ha":853,"x_min":33,"x_max":803,"o":"m 539 0 l 539 64 q 319 -14 440 -14 l 286 -14 q 128 67 173 -2 q 83 256 83 137 l 83 550 q 73 589 83 578 q 33 603 63 599 l 33 672 l 314 672 l 314 250 q 337 153 314 186 q 397 119 360 119 q 458 138 423 119 q 525 189 493 157 l 525 550 q 514 588 525 578 q 472 603 503 599 l 472 672 l 755 672 l 755 125 q 765 87 755 97 q 803 72 774 77 l 803 0 l 539 0 m 272 764 l 458 964 q 569 1028 522 1028 q 622 1006 600 1028 q 639 958 639 985 q 618 910 639 933 q 569 875 597 886 l 347 764 l 272 764 z "},"û":{"ha":853,"x_min":33,"x_max":803,"o":"m 539 0 l 539 64 q 319 -14 440 -14 l 286 -14 q 128 67 173 -2 q 83 256 83 137 l 83 550 q 73 589 83 578 q 33 603 63 599 l 33 672 l 314 672 l 314 250 q 337 153 314 186 q 397 119 360 119 q 458 138 423 119 q 525 189 493 157 l 525 550 q 514 588 525 578 q 472 603 503 599 l 472 672 l 755 672 l 755 125 q 765 87 755 97 q 803 72 774 77 l 803 0 l 539 0 m 200 764 l 353 1014 l 478 1014 l 633 764 l 564 764 l 417 878 l 267 764 l 200 764 z "},"ü":{"ha":853,"x_min":33,"x_max":803,"o":"m 539 0 l 539 64 q 319 -14 440 -14 l 286 -14 q 128 67 173 -2 q 83 256 83 137 l 83 550 q 73 589 83 578 q 33 603 63 599 l 33 672 l 314 672 l 314 250 q 337 153 314 186 q 397 119 360 119 q 458 138 423 119 q 525 189 493 157 l 525 550 q 514 588 525 578 q 472 603 503 599 l 472 672 l 755 672 l 755 125 q 765 87 755 97 q 803 72 774 77 l 803 0 l 539 0 m 186 889 q 215 956 186 932 q 283 981 244 981 q 351 956 322 981 q 380 889 380 932 q 351 818 380 844 q 283 792 322 792 q 217 818 248 792 q 186 886 186 845 l 186 889 m 450 889 q 479 956 450 932 q 547 981 508 981 q 615 956 586 981 q 645 889 645 932 q 615 818 645 844 q 547 792 585 792 q 481 818 512 792 q 450 886 450 845 l 450 889 z "},"ý":{"ha":428,"x_min":44,"x_max":380,"o":"m 44 0 l 44 72 q 84 86 74 74 q 95 125 95 98 l 95 550 q 85 589 95 579 q 44 603 76 599 l 44 672 l 328 672 l 328 125 q 339 87 328 97 q 380 72 350 77 l 380 0 l 44 0 z "},"þ":{"ha":730,"x_min":8,"x_max":683,"o":"m 8 89 l 119 244 l 186 222 q 178 180 178 188 q 203 136 178 153 q 322 100 251 100 q 350 103 331 100 q 375 105 369 105 q 431 126 406 107 q 455 175 455 145 l 455 183 q 435 217 454 206 q 383 236 415 228 q 218 282 279 261 q 107 347 158 303 q 56 461 56 392 q 59 491 56 471 q 64 517 63 511 q 160 640 83 598 q 331 686 236 681 l 372 686 q 672 597 536 686 l 569 453 l 508 475 l 508 489 q 475 553 508 530 q 397 575 443 575 l 375 575 q 310 553 337 573 q 283 511 283 533 q 325 467 283 485 q 417 441 358 455 q 505 419 476 427 q 572 391 534 411 q 636 342 609 372 q 683 214 683 290 q 647 95 683 149 q 565 28 614 53 q 459 -7 515 3 q 345 -17 404 -17 l 325 -17 q 8 89 140 -8 m 156 -256 l 189 -189 q 232 -209 203 -195 q 290 -233 262 -223 q 342 -242 319 -242 q 400 -217 379 -242 q 408 -189 408 -209 q 401 -162 408 -176 q 383 -142 394 -148 q 345 -131 362 -131 q 303 -139 334 -131 l 303 0 l 364 0 l 364 -81 q 389 -78 372 -81 q 414 -75 406 -75 q 517 -122 481 -75 q 533 -186 533 -148 q 511 -264 533 -228 q 386 -319 474 -319 q 156 -256 306 -319 z "},"ÿ":{"ha":761,"x_min":-11,"x_max":758,"o":"m 19 -280 l 19 -89 l 103 -89 q 189 -172 116 -172 q 225 -170 214 -172 q 277 -140 259 -163 q 294 -86 294 -116 q 286 -42 294 -63 l 56 547 q 31 589 43 578 q -11 603 18 601 l -11 672 l 345 672 l 345 603 q 312 593 324 603 q 300 567 300 582 q 300 567 300 567 q 308 542 300 567 l 422 222 l 533 542 q 539 569 539 564 q 492 603 539 603 l 492 672 l 758 672 l 758 603 q 689 547 713 596 l 467 -64 q 388 -216 435 -156 q 261 -297 341 -276 q 170 -306 215 -306 q 19 -280 94 -306 m 142 889 q 171 956 142 932 q 239 981 200 981 q 307 956 278 981 q 336 889 336 932 q 307 818 336 844 q 239 792 277 792 q 172 818 203 792 q 142 886 142 845 l 142 889 m 408 889 q 436 956 408 932 q 503 981 464 981 q 571 956 542 981 q 600 889 600 932 q 571 818 600 844 q 503 792 541 792 q 438 818 467 792 q 408 886 408 845 l 408 889 z "}," ":{"ha":564,"x_min":0,"x_max":0,"o":""}}}
